<?xml version="1.0" standalone="no"?>
<!DOCTYPE svg PUBLIC "-//W3C//DTD SVG 1.1//EN" "http://www.w3.org/Graphics/SVG/1.1/DTD/svg11.dtd" >
<svg>
<metadata>
Created by FontForge 20110222 at Sat Oct 11 02:53:20 2014
 By Orthosie Webhosting
URW Software, Copyright 1994 by URW
</metadata>
<defs>
<font id="NimbusSansBeckerTExtRegular" horiz-adv-x="1024" vert-adv-y="2048" >
  <font-face 
    font-family="NimbusSansBeckerTExtRegular"
    font-weight="400"
    font-stretch="normal"
    units-per-em="2048"
    panose-1="0 0 0 0 0 0 0 0 0 0"
    ascent="1652"
    descent="-396"
    x-height="1010"
    cap-height="1365"
    bbox="-218 -512 2639 1859"
    underline-thickness="134"
    underline-position="-135"
    unicode-range="U+0020-F002"
  />
<missing-glyph horiz-adv-x="614" vert-adv-y="1355" 
d="M61 0v1365h492v-1365h-492zM492 61v1243h-370v-1243h370z" />
    <glyph glyph-name=".notdef" horiz-adv-x="614" vert-adv-y="1355" 
d="M61 0v1365h492v-1365h-492zM492 61v1243h-370v-1243h370z" />
    <glyph glyph-name="glyph1" horiz-adv-x="0" vert-adv-y="0" 
 />
    <glyph glyph-name="glyph2" horiz-adv-x="614" vert-adv-y="1355" 
 />
    <glyph glyph-name="space" unicode=" " horiz-adv-x="614" vert-adv-y="1355" 
 />
    <glyph glyph-name="exclam" unicode="!" horiz-adv-x="535" vert-adv-y="1355" 
d="M377 1365v-415l-43 -604h-131l-43 604v415h217zM384 225v-225h-232v225h232z" />
    <glyph glyph-name="quotedbl" unicode="&#x22;" horiz-adv-x="751" vert-adv-y="1355" 
d="M279 818h-157l-37 547h231zM630 818h-158l-36 547h231z" />
    <glyph glyph-name="numbersign" unicode="#" horiz-adv-x="1267" vert-adv-y="1355" 
d="M820 461l-54 -388h-107l54 388h-228l-55 -388h-107l55 388h-242l14 103h242l31 218h-242l15 104h241l51 357h107l-50 -357h228l50 357h107l-50 -357h251l-14 -104h-252l-30 -218h251l-14 -103h-252zM758 782h-228l-31 -218h229z" />
    <glyph glyph-name="dollar" unicode="$" horiz-adv-x="1297" vert-adv-y="1355" 
d="M710 1197v-413l124 -24q127 -24 186 -50q195 -86 195 -299q0 -170 -124 -285q-114 -105 -301 -126q-35 -4 -80 -6v-247h-147v250q-179 14 -297 86q-180 117 -184 386h199q-7 -253 282 -297v439l-8 2q-9 3 -123 27q-315 66 -315 339q0 168 123 275q114 98 323 115v249h147
v-248q131 -8 235 -52q139 -59 194 -191q23 -54 34 -169h-192q-6 141 -143 206q-50 24 -128 33zM563 1196q-77 -10 -125 -31q-129 -56 -129 -169q0 -105 124 -152q27 -11 130 -32v384zM710 165q118 7 185 42q122 64 122 184q0 84 -73 128q-56 32 -151 50l-83 15v-419z" />
    <glyph glyph-name="percent" unicode="%" horiz-adv-x="1888" vert-adv-y="1355" 
d="M426 1338q122 0 212 -73q135 -110 135 -371q0 -177 -70 -295q-43 -72 -121 -112q-73 -36 -161 -36q-129 0 -218 73q-78 63 -112 189q-23 85 -23 180q0 180 70 297q88 148 288 148zM417 1198q-97 0 -148 -84q-44 -74 -44 -220q0 -303 196 -303q195 0 195 301
q0 150 -44 222q-51 84 -155 84zM1145 1324h160l-569 -1324h-160zM1472 873q122 0 212 -73q135 -110 135 -371q0 -177 -70 -295q-43 -72 -121 -111q-73 -37 -161 -37q-129 0 -218 73q-78 63 -112 189q-23 85 -23 180q0 180 70 297q88 148 288 148zM1463 733q-97 0 -148 -84
q-44 -74 -44 -220q0 -303 196 -303q195 0 195 301q0 150 -44 222q-51 84 -155 84z" />
    <glyph glyph-name="ampersand" unicode="&#x26;" horiz-adv-x="1610" vert-adv-y="1355" 
d="M1192 655h201q-11 -161 -112 -338l353 -317h-295l-180 165q-81 -66 -148 -104q-157 -89 -355 -89q-146 0 -277 52q-137 55 -208 163q-55 83 -55 198q0 195 174 318q70 49 174 95q-58 64 -85 101q-61 82 -61 177q0 143 120 230q99 73 261 73q159 0 251 -79q90 -78 90 -204
q0 -143 -114 -236q-53 -44 -149 -91l365 -329q46 85 50 215zM657 881q9 3 20 7q32 12 58 27q114 64 114 162q0 61 -44 100q-43 39 -122 39q-75 0 -123 -37q-44 -34 -44 -91q0 -72 58 -131q21 -22 83 -76zM591 676q-92 -31 -154 -76q-116 -84 -116 -196q0 -115 110 -194
q96 -68 252 -68q218 0 347 140z" />
    <glyph glyph-name="quotesingle" unicode="'" horiz-adv-x="407" vert-adv-y="1355" 
d="M286 818h-164l-37 547h238z" />
    <glyph glyph-name="parenleft" unicode="(" horiz-adv-x="731" vert-adv-y="1355" 
d="M469 1365h146q-118 -146 -188 -288q-59 -120 -87 -238q-34 -141 -34 -327q0 -244 62 -424q76 -217 247 -429h-146q-87 95 -157 198q-99 147 -148 279q-63 173 -63 376q0 270 114 492q99 192 254 361z" />
    <glyph glyph-name="parenright" unicode=")" horiz-adv-x="731" vert-adv-y="1355" 
d="M262 -341h-146q118 146 188 288q59 121 87 238q34 140 34 327q0 245 -62 424q-75 216 -247 429h146q87 -96 156 -198q100 -147 148 -279q64 -173 64 -376q0 -270 -114 -492q-99 -191 -254 -361z" />
    <glyph glyph-name="asterisk" unicode="*" horiz-adv-x="905" vert-adv-y="1355" 
d="M384 1365h136l-7 -284l268 95l42 -130l-272 -80l172 -226l-110 -80l-161 234l-161 -234l-110 80l173 226l-272 80l42 130l268 -95z" />
    <glyph glyph-name="plus" unicode="+" vert-adv-y="1355" 
d="M38 765h418v399h112v-399h419v-108h-419v-400h-112v400h-418v108z" />
    <glyph glyph-name="comma" unicode="," horiz-adv-x="518" vert-adv-y="1355" 
d="M138 225h242v-180q-1 -151 -77 -247q-58 -69 -154 -92v115q111 37 112 179h-123v225z" />
    <glyph glyph-name="hyphen" unicode="-" horiz-adv-x="701" vert-adv-y="1355" 
d="M701 607v-177h-701v177h701z" />
    <glyph glyph-name="period" unicode="." horiz-adv-x="518" vert-adv-y="1355" 
d="M138 225h242v-225h-242v225z" />
    <glyph glyph-name="slash" unicode="/" horiz-adv-x="860" vert-adv-y="1355" 
d="M620 1365h189l-592 -1365h-190z" />
    <glyph glyph-name="zero" unicode="0" horiz-adv-x="1297" vert-adv-y="1355" 
d="M656 1351q150 0 272 -69q170 -96 233 -304q39 -129 39 -316q0 -229 -59 -372q-81 -194 -258 -271q-106 -46 -234 -46q-255 0 -398 165q-154 176 -154 520q0 233 59 376q80 193 258 271q106 46 242 46zM643 1180q-114 0 -203 -72q-138 -111 -138 -446q0 -248 76 -376
q39 -66 115 -105q71 -37 155 -37q120 0 209 71q138 111 138 444q0 253 -76 379q-40 67 -115 105q-72 37 -161 37z" />
    <glyph glyph-name="one" unicode="1" horiz-adv-x="1297" vert-adv-y="1355" 
d="M838 0h-208v958h-369v154q220 2 327 71q78 54 85 169h165v-1352z" />
    <glyph glyph-name="two" unicode="2" horiz-adv-x="1297" vert-adv-y="1355" 
d="M1177 0h-1064q6 183 124 323q58 68 158 131q51 32 156 87l173 89q134 69 180 113q70 67 70 177q0 127 -94 198q-83 64 -214 64q-173 0 -257 -98q-55 -65 -71 -211h-209q6 84 19 137q44 179 212 271q127 71 311 71q218 0 352 -96q162 -115 162 -328q0 -158 -92 -262
q-83 -93 -279 -192l-160 -81q-132 -67 -209 -125q-53 -41 -80 -91h812v-177z" />
    <glyph glyph-name="three" unicode="3" horiz-adv-x="1297" vert-adv-y="1355" 
d="M529 623v164h94q136 0 202 25q58 21 90 78q22 40 22 86q0 98 -78 151q-79 54 -214 54q-178 0 -255 -91q-46 -55 -60 -182h-196q7 98 29 159q101 284 491 284q191 0 319 -75q73 -43 119 -113q50 -77 50 -166q0 -165 -172 -276q225 -101 225 -319q0 -155 -104 -268
q-150 -162 -453 -162q-311 0 -446 177q-86 112 -91 290h202q4 -82 22 -126q71 -170 326 -170q159 0 254 73q85 66 85 181q0 128 -107 180q-95 46 -262 46h-92z" />
    <glyph glyph-name="four" unicode="4" horiz-adv-x="1297" vert-adv-y="1355" 
d="M791 326h-701v178l726 848h173v-855h219v-171h-219v-326h-198v326zM791 497v577l-492 -577h492z" />
    <glyph glyph-name="five" unicode="5" horiz-adv-x="1297" vert-adv-y="1355" 
d="M1101 1324v-177h-684l-62 -349q155 91 328 91q220 0 364 -116q150 -121 150 -325q0 -150 -83 -269q-145 -206 -480 -206q-278 0 -418 139q-103 102 -117 249h201q21 -88 65 -130q92 -87 271 -87q135 0 226 56q124 76 124 236q0 143 -109 222q-91 67 -238 67
q-213 0 -307 -134h-194l125 733h838z" />
    <glyph glyph-name="six" unicode="6" horiz-adv-x="1297" vert-adv-y="1355" 
d="M1178 1019h-206q-25 73 -68 107q-71 56 -208 56q-161 0 -250 -78q-91 -79 -126 -221q-13 -52 -15 -153v-21q77 79 152 118q118 61 268 61q196 0 329 -98q164 -120 164 -339q0 -228 -174 -364q-146 -115 -366 -115q-283 0 -430 183q-141 176 -141 490q0 323 144 512
q149 195 454 195q208 0 332 -95q90 -68 125 -179q8 -25 16 -59zM670 717q-154 0 -247 -83q-87 -77 -87 -204t87 -204q92 -83 252 -83q159 0 251 83q87 77 87 203q0 129 -87 205q-93 83 -256 83z" />
    <glyph glyph-name="seven" unicode="7" horiz-adv-x="1297" vert-adv-y="1355" 
d="M137 1324h1037v-177q-463 -568 -563 -1147h-229q64 277 213 576q179 351 395 571h-853v177z" />
    <glyph glyph-name="eight" unicode="8" horiz-adv-x="1297" vert-adv-y="1355" 
d="M962 728q108 -49 157 -101q91 -97 91 -243q0 -126 -70 -225q-133 -186 -491 -186q-264 0 -412 106q-76 55 -117 146q-33 74 -33 159q0 146 91 243q49 52 156 101q-91 39 -134 93q-60 76 -60 181q0 117 74 204q124 145 435 145q232 0 368 -88q62 -40 99 -105
q41 -71 41 -156q0 -105 -60 -181q-43 -54 -135 -93zM645 1181q-300 0 -300 -190t304 -190q303 0 303 190t-307 190zM643 637q-156 0 -246 -55q-105 -65 -105 -192q0 -126 105 -191q90 -55 252 -55q161 0 251 55q105 65 105 191q0 128 -105 192q-90 55 -257 55z" />
    <glyph glyph-name="nine" unicode="9" horiz-adv-x="1297" vert-adv-y="1355" 
d="M119 306h206q26 -74 68 -107q72 -56 208 -56q226 0 324 165q68 115 68 281v26q-78 -79 -152 -117q-118 -61 -268 -61q-196 0 -329 98q-164 120 -164 339q0 228 174 363q146 115 366 115q283 0 430 -183q141 -176 141 -489q0 -323 -144 -513q-149 -195 -454 -195
q-208 0 -333 95q-90 69 -124 180q-8 25 -17 59zM619 1181q-154 0 -247 -82q-87 -78 -87 -205q0 -126 87 -204q92 -82 251 -82q161 0 252 82q87 79 87 204q0 128 -87 205q-94 82 -256 82z" />
    <glyph glyph-name="colon" unicode=":" horiz-adv-x="518" vert-adv-y="1355" 
d="M138 1010h242v-225h-242v225zM138 225h242v-225h-242v225z" />
    <glyph glyph-name="semicolon" unicode=";" horiz-adv-x="518" vert-adv-y="1355" 
d="M138 1010h242v-225h-242v225zM138 225h242v-180q-1 -151 -77 -247q-58 -69 -154 -92v115q111 37 112 179h-123v225z" />
    <glyph glyph-name="less" unicode="&#x3c;" vert-adv-y="1355" 
d="M955 1216v-215l-658 -314l658 -314v-213l-887 437v182z" />
    <glyph glyph-name="equal" unicode="=" vert-adv-y="1355" 
d="M37 911h949v-105h-949v105zM37 616h949v-106h-949v106z" />
    <glyph glyph-name="greater" unicode="&#x3e;" vert-adv-y="1355" 
d="M69 160v214l658 314l-657 315v213l886 -437v-183z" />
    <glyph glyph-name="question" unicode="?" horiz-adv-x="1142" vert-adv-y="1355" 
d="M651 330h-203q-1 32 -1 49q0 107 51 175q44 59 167 145q119 84 161 139q49 66 49 147q0 122 -94 188q-75 52 -190 52q-180 0 -262 -108q-55 -73 -58 -188h-210q0 127 42 212q62 124 212 193q127 58 280 58q205 0 343 -102q142 -105 142 -297q0 -133 -76 -235
q-52 -68 -173 -150q-98 -66 -131 -100q-53 -54 -53 -120q0 -23 4 -58zM668 225v-225h-232v225h232z" />
    <glyph glyph-name="at" unicode="@" horiz-adv-x="1402" vert-adv-y="1355" 
d="M1237 344h86q-52 -116 -157 -202q-194 -159 -437 -159q-201 0 -368 108q-160 103 -243 275q-66 139 -66 295q0 195 98 359q89 146 238 233q161 94 349 94q157 0 294 -68q162 -81 247 -225q71 -123 71 -268q0 -235 -178 -380q-127 -103 -251 -103q-73 0 -117 51
q-15 18 -23 54q-109 -105 -218 -105q-112 0 -178 91q-45 62 -45 160q0 158 100 298q127 175 288 175q130 0 188 -122l33 90h113l-163 -482q-18 -54 -18 -83q0 -62 71 -62q96 0 194 102q126 130 126 311q0 220 -171 364q-152 129 -361 129q-173 0 -318 -89
q-129 -79 -204 -211q-81 -142 -81 -312q0 -249 166 -422q175 -182 430 -182q205 0 376 136q79 64 129 150zM802 589l47 129q24 69 24 109q0 57 -36 96q-35 36 -81 36q-100 0 -189 -124q-50 -69 -79 -165q-25 -81 -25 -153q0 -61 27 -101q33 -49 91 -49q77 0 138 65
q45 49 83 157z" />
    <glyph glyph-name="A" unicode="A" horiz-adv-x="1539" vert-adv-y="1355" 
d="M1092 394h-661l-177 -394h-240l635 1365h237l639 -1365h-254zM1013 571l-253 558l-251 -558h504z" />
    <glyph glyph-name="B" unicode="B" horiz-adv-x="1536" vert-adv-y="1355" 
d="M168 0v1365h681q154 0 226 -13q163 -29 233 -134q58 -87 58 -207q0 -189 -169 -280q228 -96 228 -330q0 -163 -100 -273q-92 -100 -274 -121q-61 -7 -192 -7h-691zM380 799h520q129 0 192 42q73 48 73 153q0 103 -73 152q-62 42 -192 42h-520v-389zM380 177h551
q140 0 204 48q78 57 78 174q0 118 -78 175q-64 48 -204 48h-551v-445z" />
    <glyph glyph-name="C" unicode="C" horiz-adv-x="1619" vert-adv-y="1355" 
d="M1330 539h214q-42 -228 -166 -365q-188 -208 -534 -208q-398 0 -596 265q-136 183 -136 452q0 270 137 450q201 266 599 266q334 0 521 -189q122 -124 163 -333h-214q-25 119 -91 194q-135 151 -382 151q-246 0 -390 -161q-132 -148 -132 -378q0 -231 135 -379
q148 -161 390 -161q257 0 392 173q64 82 90 223z" />
    <glyph glyph-name="D" unicode="D" horiz-adv-x="1594" vert-adv-y="1355" 
d="M168 0v1365h612q191 0 303 -32q400 -114 400 -655q0 -375 -208 -551q-115 -97 -276 -116q-95 -11 -221 -11h-610zM380 191h415q153 0 232 27q244 85 244 465q0 281 -138 403q-74 65 -186 80q-67 8 -152 8h-415v-983z" />
    <glyph glyph-name="E" unicode="E" horiz-adv-x="1408" vert-adv-y="1355" 
d="M1304 0h-1136v1365h1119v-191h-907v-382h852v-191h-852v-410h924v-191z" />
    <glyph glyph-name="F" unicode="F" horiz-adv-x="1269" vert-adv-y="1355" 
d="M380 0h-212v1365h1060v-191h-848v-384h745v-191h-745v-599z" />
    <glyph glyph-name="G" unicode="G" horiz-adv-x="1698" vert-adv-y="1355" 
d="M1557 0h-160l-28 186q-90 -91 -173 -137q-153 -84 -361 -84q-353 0 -556 234q-167 192 -167 478q0 313 197 512q102 102 237 153q153 57 322 57q326 0 518 -186q110 -107 156 -280h-223q-27 77 -60 119q-68 87 -185 133q-96 37 -212 37q-234 0 -382 -137
q-157 -146 -157 -394q0 -259 158 -409q146 -139 385 -139q267 0 408 178q70 89 95 234h-449v191h637v-746z" />
    <glyph glyph-name="H" unicode="H" horiz-adv-x="1594" vert-adv-y="1355" 
d="M1426 0h-212v644h-834v-644h-212v1365h212v-544h834v544h212v-1365z" />
    <glyph glyph-name="I" unicode="I" horiz-adv-x="547" vert-adv-y="1355" 
d="M380 0h-212v1365h212v-1365z" />
    <glyph glyph-name="J" unicode="J" horiz-adv-x="1158" vert-adv-y="1355" 
d="M779 1365h212v-895q0 -160 -23 -232q-87 -272 -450 -272q-301 0 -411 201q-59 108 -59 253v44h208q0 -158 48 -230q60 -91 213 -91q155 0 215 91q47 73 47 230v901z" />
    <glyph glyph-name="K" unicode="K" horiz-adv-x="1478" vert-adv-y="1355" 
d="M1468 0h-284l-559 669l-245 -206v-463h-212v1365h212v-676l772 676h293l-657 -559z" />
    <glyph glyph-name="L" unicode="L" horiz-adv-x="1282" vert-adv-y="1355" 
d="M1234 0h-1066v1365h212v-1174h854v-191z" />
    <glyph glyph-name="M" unicode="M" horiz-adv-x="2034" vert-adv-y="1355" 
d="M1866 0h-212v1122l-550 -1122h-189l-535 1122v-1122h-212v1365h303l547 -1154l554 1154h294v-1365z" />
    <glyph glyph-name="N" unicode="N" horiz-adv-x="1710" vert-adv-y="1355" 
d="M1542 0h-254l-908 1112v-1112h-212v1365h266l896 -1102v1102h212v-1365z" />
    <glyph glyph-name="O" unicode="O" horiz-adv-x="1762" vert-adv-y="1355" 
d="M892 1399q227 0 406 -96q196 -105 288 -309q64 -143 64 -312q0 -202 -92 -366q-107 -193 -315 -281q-162 -69 -362 -69q-356 0 -565 203q-109 106 -163 259q-41 120 -41 253q0 204 91 369q107 192 316 280q161 69 373 69zM873 1222q-242 0 -392 -144q-157 -149 -157 -396
q0 -245 157 -395q150 -144 400 -144t401 144q75 73 117 179q39 101 39 215q0 166 -76 296q-144 245 -489 245z" />
    <glyph glyph-name="P" unicode="P" horiz-adv-x="1420" vert-adv-y="1355" 
d="M380 0h-212v1365h743q189 0 300 -85q140 -108 140 -319t-141 -318q-115 -87 -292 -87h-538v-556zM380 733h478q139 0 203 49q78 58 78 179q0 120 -78 178q-64 49 -203 49h-478v-455z" />
    <glyph glyph-name="Q" unicode="Q" horiz-adv-x="1762" vert-adv-y="1355" 
d="M1421 145l178 -142l-107 -134l-223 177q-176 -80 -390 -80q-354 0 -563 203q-110 106 -163 259q-41 120 -41 255q0 202 92 366q107 193 315 281q161 69 362 69q356 0 565 -203q110 -106 163 -259q41 -120 41 -255q0 -202 -92 -367q-54 -98 -137 -170zM1263 270
q176 153 176 413q0 163 -77 294q-81 138 -233 200q-112 45 -247 45q-251 0 -401 -144q-157 -150 -157 -395q0 -164 77 -295q81 -138 233 -200q111 -45 244 -45q119 0 224 36l-145 116l107 134z" />
    <glyph glyph-name="R" unicode="R" horiz-adv-x="1536" vert-adv-y="1355" 
d="M380 576v-576h-212v1365h754q456 0 456 -381q0 -141 -75 -229q-40 -46 -117 -92q90 -41 128 -110q27 -52 35 -116q8 -70 15 -213q6 -118 27 -156q12 -23 48 -23h8v-45h-261q-14 55 -21 101q-4 31 -14 172q-9 131 -34 183q-34 79 -116 105q-50 15 -116 15h-505zM380 753
h524q117 0 175 33q88 51 88 185q0 133 -88 184q-58 33 -175 33h-524v-435z" />
    <glyph glyph-name="S" unicode="S" horiz-adv-x="1457" vert-adv-y="1355" 
d="M1308 969h-212q-10 112 -85 171q-105 81 -293 81q-171 0 -276 -65q-90 -56 -90 -149q0 -87 85 -133q59 -32 217 -60l280 -50q201 -36 295 -102q65 -47 99 -126q27 -63 27 -135q0 -154 -107 -267q-158 -168 -501 -168q-396 0 -546 182q-69 84 -89 198q-7 38 -10 115h220
q1 -83 22 -130q45 -107 182 -154q95 -33 229 -33q191 0 295 74q87 62 87 162q0 89 -81 133q-62 34 -169 52l-259 44q-204 35 -309 84q-89 42 -139 136q-40 74 -40 162q0 151 104 256q151 152 476 152q283 0 431 -109q101 -74 136 -191q13 -45 21 -130z" />
    <glyph glyph-name="T" unicode="T" horiz-adv-x="1288" vert-adv-y="1355" 
d="M749 0h-212v1174h-523v191h1260v-191h-525v-1174z" />
    <glyph glyph-name="U" unicode="U" horiz-adv-x="1609" vert-adv-y="1355" 
d="M1229 1365h212v-883q0 -257 -187 -394q-168 -122 -449 -122q-308 0 -478 145q-159 135 -159 371v883h212v-876q0 -171 120 -260q114 -85 305 -85q190 0 305 85q119 89 119 260v876z" />
    <glyph glyph-name="V" unicode="V" horiz-adv-x="1491" vert-adv-y="1355" 
d="M851 0h-231l-606 1365h259l472 -1122l491 1122h242z" />
    <glyph glyph-name="W" unicode="W" horiz-adv-x="2196" vert-adv-y="1355" 
d="M1722 0h-232l-390 1135l-384 -1135h-243l-459 1365h238l349 -1125l384 1125h238l385 -1125l360 1125h214z" />
    <glyph glyph-name="X" unicode="X" horiz-adv-x="1451" vert-adv-y="1355" 
d="M859 709l560 -709h-271l-426 543l-423 -543h-268l559 703l-529 662h279l389 -498l389 498h260z" />
    <glyph glyph-name="Y" unicode="Y" horiz-adv-x="1416" vert-adv-y="1355" 
d="M814 0h-212v568l-602 797h273l440 -618l446 618h258l-603 -797v-568z" />
    <glyph glyph-name="Z" unicode="Z" horiz-adv-x="1390" vert-adv-y="1355" 
d="M1327 0h-1252v188l981 986h-917v191h1188v-198l-962 -976h962v-191z" />
    <glyph glyph-name="bracketleft" unicode="[" horiz-adv-x="720" vert-adv-y="1355" 
d="M150 1365h447v-164h-256v-1378h256v-164h-447v1706z" />
    <glyph glyph-name="backslash" unicode="\" horiz-adv-x="860" vert-adv-y="1355" 
d="M240 1365l593 -1365h-190l-592 1365h189z" />
    <glyph glyph-name="bracketright" unicode="]" horiz-adv-x="720" vert-adv-y="1355" 
d="M570 -341h-447v164h256v1378h-256v164h447v-1706z" />
    <glyph glyph-name="asciicircum" unicode="^" vert-adv-y="1355" 
d="M248 748h-196l339 622h242l340 -622h-197l-265 476z" />
    <glyph glyph-name="underscore" unicode="_" vert-adv-y="1355" 
d="M0 -135h1024v-134h-1024v134z" />
    <glyph glyph-name="grave" unicode="`" vert-adv-y="1355" 
d="M216 1386h270l132 -263h-157z" />
    <glyph glyph-name="glyph68" unicode="a" horiz-adv-x="1272" vert-adv-y="1355" 
d="M337 676h-199q14 132 70 204q124 157 438 157q247 0 370 -83q63 -42 83 -112q16 -52 16 -129v-448q0 -81 24 -106q23 -24 66 -24q19 0 48 3v-136q-50 -16 -103 -16q-110 0 -164 49q-33 30 -59 103q-63 -60 -123 -94q-128 -72 -310 -72q-183 0 -287 80q-106 81 -106 220
q0 113 75 190q66 68 204 95q47 9 205 26q203 21 262 40q79 25 79 100q0 157 -272 157q-186 0 -261 -67q-47 -42 -56 -137zM927 503q-159 -49 -388 -72q-116 -13 -165 -37q-68 -32 -68 -109q0 -156 244 -156q199 0 306 103q48 46 61 92q10 34 10 97v82z" />
    <glyph glyph-name="b" unicode="b" horiz-adv-x="1381" vert-adv-y="1355" 
d="M152 1365h198v-490q69 61 125 93q123 70 273 70q257 0 410 -183q123 -146 123 -350q0 -239 -163 -392q-148 -141 -369 -141q-168 0 -304 89q-40 26 -95 74v-135h-198v1365zM696 871q-118 0 -213 -63q-152 -100 -152 -303q0 -155 91 -252q106 -114 281 -114q123 0 221 63
q152 97 152 306q0 151 -91 250q-105 113 -289 113z" />
    <glyph glyph-name="c" unicode="c" horiz-adv-x="1249" vert-adv-y="1355" 
d="M975 366h196q-28 -126 -97 -212q-146 -181 -418 -181q-297 0 -440 175q-115 140 -115 352q0 264 163 406q149 131 391 131q188 0 318 -83q148 -95 188 -277h-192q-69 203 -307 203q-146 0 -242 -76q-121 -95 -121 -298q0 -176 93 -272q100 -104 272 -104q242 0 311 236z
" />
    <glyph glyph-name="d" unicode="d" horiz-adv-x="1381" vert-adv-y="1355" 
d="M1230 1365v-1365h-198v135q-69 -61 -125 -93q-123 -70 -273 -70q-257 0 -410 183q-123 146 -123 350q0 239 163 392q148 141 370 141q167 0 303 -89q40 -26 95 -74v490h198zM672 871q-119 0 -214 -63q-152 -100 -152 -303q0 -154 91 -252q106 -114 282 -114q122 0 220 63
q152 97 152 304q0 153 -91 252q-104 113 -288 113z" />
    <glyph glyph-name="e" unicode="e" horiz-adv-x="1331" vert-adv-y="1355" 
d="M1229 446h-935q10 -100 61 -169q108 -147 326 -147q238 0 316 185h214q-149 -342 -548 -342q-293 0 -445 185q-117 144 -117 342q0 262 183 412q154 126 383 126q254 0 407 -148q155 -148 155 -444zM1027 601q-25 96 -75 155q-107 125 -289 125t-289 -125
q-49 -59 -75 -155h728z" />
    <glyph glyph-name="f" unicode="f" horiz-adv-x="651" vert-adv-y="1355" 
d="M632 1010v-164h-236v-846h-198v846h-156v164h156v121q0 140 57 194q65 61 236 61q66 0 141 -10v-173q-62 6 -113 6q-76 0 -101 -20q-22 -17 -22 -73v-106h236z" />
    <glyph glyph-name="g" unicode="g" horiz-adv-x="1374" vert-adv-y="1355" 
d="M1035 1010h188v-847q0 -186 -36 -270q-108 -248 -520 -248q-488 0 -516 313h220q11 -67 57 -100q80 -56 243 -56q202 0 290 88q74 74 74 223v54q-71 -63 -127 -95q-123 -70 -278 -70q-160 0 -293 75q-120 67 -180 188q-56 113 -56 251q0 251 169 394q151 127 373 127
q225 0 392 -155v128zM664 870q-181 0 -282 -117q-83 -95 -83 -233q0 -164 110 -262q99 -89 262 -89q189 0 290 117q82 95 82 236q0 161 -110 259q-98 89 -269 89z" />
    <glyph glyph-name="h" unicode="h" horiz-adv-x="1305" vert-adv-y="1355" 
d="M152 0v1365h198v-499q65 64 115 96q116 75 279 75q198 0 314 -104q62 -55 80 -130q16 -65 16 -160v-643h-198v629q0 99 -27 140q-67 101 -223 101q-138 0 -240 -73q-63 -45 -94 -114q-22 -47 -22 -96v-587h-198z" />
    <glyph glyph-name="i" unicode="i" horiz-adv-x="501" vert-adv-y="1355" 
d="M152 0v1012h198v-1012h-198zM152 1153v212h198v-212h-198z" />
    <glyph glyph-name="j" unicode="j" horiz-adv-x="507" vert-adv-y="1355" 
d="M157 1010h198v-948q0 -150 -6 -188q-37 -217 -319 -217q-34 0 -93 6v165q41 -3 63 -3q107 0 140 63q14 26 17 80v95v947zM157 1153v212h198v-212h-198z" />
    <glyph glyph-name="k" unicode="k" horiz-adv-x="1231" vert-adv-y="1355" 
d="M152 1365h198v-777l518 422h292l-483 -384l538 -626h-268l-422 505l-175 -138v-367h-198v1365z" />
    <glyph glyph-name="l" unicode="l" horiz-adv-x="501" vert-adv-y="1355" 
d="M350 1365v-1365h-198v1365h198z" />
    <glyph glyph-name="m" unicode="m" horiz-adv-x="2031" vert-adv-y="1355" 
d="M152 1010h198v-145q164 172 383 172q245 0 353 -187q65 70 115 105q121 82 282 82q147 0 252 -66q109 -68 134 -196q11 -56 11 -186v-589h-198v583q0 118 -17 158q-29 70 -107 104q-57 25 -129 25q-130 0 -224 -70q-93 -69 -93 -204v-596h-198v589q0 127 -18 166
q-30 63 -109 94q-54 21 -118 21q-131 0 -226 -72q-93 -70 -93 -212v-586h-198v1010z" />
    <glyph glyph-name="n" unicode="n" horiz-adv-x="1305" vert-adv-y="1355" 
d="M152 0v1010h198v-144q65 64 115 96q116 75 279 75q198 0 314 -104q62 -55 80 -130q16 -65 16 -160v-643h-198v629q0 99 -27 140q-67 101 -223 101q-138 0 -240 -73q-63 -45 -94 -114q-22 -47 -22 -96v-587h-198z" />
    <glyph glyph-name="o" unicode="o" horiz-adv-x="1377" vert-adv-y="1355" 
d="M699 1037q247 0 411 -148q166 -149 166 -384q0 -166 -87 -294t-231 -186q-127 -52 -269 -52q-260 0 -422 147q-166 151 -166 390q0 264 213 417q152 110 385 110zM682 880q-188 0 -294 -130q-82 -99 -82 -245q0 -173 110 -276q105 -99 273 -99q195 0 301 130
q81 98 81 246q0 172 -110 275q-104 99 -279 99z" />
    <glyph glyph-name="p" unicode="p" horiz-adv-x="1381" vert-adv-y="1355" 
d="M152 -355v1365h198v-135q71 62 125 93q124 70 273 70q257 0 410 -183q123 -146 123 -350q0 -239 -163 -392q-148 -141 -370 -141q-167 0 -303 88q-40 27 -95 75v-490h-198zM696 871q-118 0 -213 -63q-152 -100 -152 -303q0 -155 91 -252q105 -114 281 -114q123 0 221 63
q152 97 152 306q0 151 -91 249q-105 114 -289 114z" />
    <glyph glyph-name="q" unicode="q" horiz-adv-x="1381" vert-adv-y="1355" 
d="M1032 1010h198v-1365h-198v490q-69 -61 -125 -93q-123 -70 -273 -70q-257 0 -410 183q-123 146 -123 350q0 239 163 392q148 141 369 141q167 0 304 -89q40 -26 95 -74v135zM672 871q-119 0 -214 -63q-152 -100 -152 -303q0 -154 91 -252q105 -114 282 -114q122 0 220 63
q152 97 152 304q0 153 -91 251q-105 114 -288 114z" />
    <glyph glyph-name="r" unicode="r" horiz-adv-x="852" vert-adv-y="1355" 
d="M152 1010h198v-150q55 65 95 98q93 80 238 80q52 0 124 -11v-199q-75 19 -133 19q-156 0 -253 -102q-43 -45 -59 -91q-12 -37 -12 -101v-553h-198v1010z" />
    <glyph glyph-name="s" unicode="s" horiz-adv-x="1196" vert-adv-y="1355" 
d="M1079 695h-199q-9 74 -44 111q-72 75 -242 75q-104 0 -179 -30q-89 -36 -89 -106q0 -37 35 -68q31 -28 115 -45q39 -8 172 -28q207 -32 255 -45q127 -35 175 -114q39 -63 39 -145q0 -173 -149 -255q-132 -72 -357 -72q-307 0 -436 140q-70 77 -92 214h206q9 -75 56 -117
q91 -80 267 -80q139 0 221 37q79 35 79 110q0 66 -61 92q-39 17 -88 25l-162 26q-232 37 -313 69q-82 33 -128 110q-32 56 -32 126q0 108 74 186q119 127 401 127q283 0 401 -140q62 -74 75 -203z" />
    <glyph glyph-name="t" unicode="t" horiz-adv-x="651" vert-adv-y="1355" 
d="M382 1290v-280h237v-164h-237v-581q0 -71 24 -91q29 -24 104 -24q48 0 109 10v-166q-100 -15 -164 -15q-153 0 -221 66q-35 35 -43 85q-7 49 -7 128v588h-131v164h131v280h198z" />
    <glyph glyph-name="u" unicode="u" horiz-adv-x="1305" vert-adv-y="1355" 
d="M1154 1010v-1010h-198v144q-65 -64 -115 -96q-116 -75 -279 -75q-198 0 -314 104q-61 55 -80 130q-16 65 -16 160v643h198v-629q0 -99 27 -140q67 -101 224 -101q137 0 239 73q63 45 94 114q22 47 22 96v587h198z" />
    <glyph glyph-name="v" unicode="v" horiz-adv-x="1174" vert-adv-y="1355" 
d="M1153 1010l-471 -1010h-201l-461 1010h235l333 -784l342 784h223z" />
    <glyph glyph-name="w" unicode="w" horiz-adv-x="1739" vert-adv-y="1355" 
d="M1334 0h-205l-259 783l-262 -783h-205l-383 1010h211l274 -783l260 783h225l246 -783l273 783h209z" />
    <glyph glyph-name="x" unicode="x" horiz-adv-x="1207" vert-adv-y="1355" 
d="M719 528l474 -528h-265l-337 379l-327 -379h-250l452 520l-437 490h263l303 -342l298 342h251z" />
    <glyph glyph-name="y" unicode="y" horiz-adv-x="1181" vert-adv-y="1355" 
d="M937 1010h223l-494 -1089q-80 -177 -174 -226q-72 -38 -191 -38q-60 0 -141 17v166q88 -15 138 -15q105 0 156 71q24 33 42 89l-476 1025h234l347 -819z" />
    <glyph glyph-name="z" unicode="z" horiz-adv-x="1154" vert-adv-y="1355" 
d="M129 1010h955v-164l-723 -669h732v-177h-1004v177l720 669h-680v164z" />
    <glyph glyph-name="braceleft" unicode="{" vert-adv-y="1355" 
d="M463 501q66 -37 95 -105q19 -46 19 -136v-275q3 -98 20 -122q33 -65 176 -64v-183q-25 -1 -36 -1q-167 0 -218 16q-103 32 -136 138q-18 57 -18 148v313q0 102 -33 142q-35 39 -84 50v168q53 12 86 52q29 36 31 130v337q0 154 74 220q51 46 121 54q67 7 167 7q15 0 46 -1
v-194q-92 0 -142 -27q-38 -23 -47 -67q-7 -27 -7 -85v-278q0 -109 -32 -162q-24 -43 -82 -75z" />
    <glyph glyph-name="bar" unicode="|" vert-adv-y="1355" 
d="M404 1365h216v-1706h-216v1706z" />
    <glyph glyph-name="braceright" unicode="}" vert-adv-y="1355" 
d="M561 503q-66 38 -95 106q-19 45 -19 135v275q-3 99 -20 122q-33 65 -176 64v184h38q165 0 216 -16q103 -32 136 -138q18 -57 18 -148v-313q0 -102 33 -142q34 -39 84 -50v-167q-54 -13 -86 -53q-29 -35 -31 -130v-337q0 -154 -74 -220q-52 -46 -121 -53q-69 -8 -167 -8
q-15 0 -46 2v193q92 0 142 27q38 23 47 67q7 27 7 85v278q0 110 31 162q25 42 83 75z" />
    <glyph glyph-name="asciitilde" unicode="~" horiz-adv-x="1365" vert-adv-y="1355" 
d="M302 1166l-110 89q109 249 288 249q75 0 235 -77q95 -45 123 -53q31 -9 55 -9q95 0 173 143l110 -88q-55 -130 -131 -189q-74 -57 -175 -57q-32 0 -75 14q-38 11 -163 71q-106 51 -163 51q-88 0 -167 -144z" />
    <glyph glyph-name="nbspace" unicode="&#xa0;" horiz-adv-x="614" vert-adv-y="1355" 
 />
    <glyph glyph-name="exclamdown" unicode="&#xa1;" horiz-adv-x="535" vert-adv-y="1355" 
d="M160 -355v415l43 604h131l43 -604v-415h-217zM152 785v225h232v-225h-232z" />
    <glyph glyph-name="cent" unicode="&#xa2;" horiz-adv-x="1297" vert-adv-y="1355" 
d="M736 1212q174 -17 284 -104q123 -97 154 -253h-192q-51 171 -246 199v-742q83 13 142 58q80 63 110 174h196q-39 -197 -198 -307q-103 -69 -250 -84v-225h-147v227q-131 15 -222 60q-136 66 -201 212q-52 117 -52 251q0 228 123 367q122 139 352 166v223h147v-222z
M589 316v735q-69 -13 -122 -45q-155 -95 -155 -323t158 -323q51 -31 119 -44z" />
    <glyph glyph-name="sterling" unicode="&#xa3;" horiz-adv-x="1297" vert-adv-y="1355" 
d="M810 707v-125h-363q37 -94 37 -149q0 -84 -66 -175q-25 -34 -80 -93q90 28 171 28q74 0 148 -15q20 -4 123 -31q44 -11 99 -11q114 0 265 88l57 -155q-142 -96 -303 -96q-81 0 -253 43q-101 25 -205 25q-145 0 -261 -68l-82 141q73 49 119 95q89 91 89 205q0 77 -48 168
h-160v125h108q-23 52 -33 80q-22 60 -22 126q0 157 104 271q89 96 234 139q94 28 202 28q164 0 287 -60q153 -74 200 -243q14 -47 24 -124h-198q-38 256 -319 256q-136 0 -225 -69q-104 -82 -104 -210q0 -90 43 -194h412z" />
    <glyph glyph-name="currency" unicode="&#xa4;" horiz-adv-x="1428" vert-adv-y="1355" 
d="M121 222l194 196q-91 132 -91 281q0 105 53 208q14 28 41 72l-200 198l114 114l200 -201q59 36 95 53q88 41 188 41q109 0 208 -53q25 -13 70 -40l201 198l112 -112l-197 -196q96 -143 96 -286q0 -104 -50 -204q-13 -26 -41 -73l197 -196l-112 -113l-197 195
q-136 -95 -276 -95q-138 0 -297 95l-196 -195zM712 1002q-121 0 -210 -89q-88 -89 -88 -214q0 -126 88 -214q89 -89 213 -89t213 89q88 88 88 213q0 128 -88 215q-90 89 -216 89z" />
    <glyph glyph-name="yen" unicode="&#xa5;" horiz-adv-x="1297" vert-adv-y="1355" 
d="M762 568v-568h-212v568h-299v125h209l-186 257h-228v125h138l-209 290h273l194 -290h441l196 290h258l-210 -290h139v-125h-229l-185 -257h209v-125h-299zM526 950l135 -202l137 202h-272z" />
    <glyph glyph-name="brokenbar" unicode="&#xa6;" vert-adv-y="1355" 
d="M404 1365h216v-697h-216v697zM404 314h216v-655h-216v655z" />
    <glyph glyph-name="section" unicode="&#xa7;" horiz-adv-x="1415" vert-adv-y="1355" 
d="M1163 1026h-193q-1 86 -45 129q-63 60 -223 60q-235 0 -235 -139q0 -41 23 -67q44 -49 213 -116l324 -128q118 -47 176 -109q70 -76 70 -186q0 -124 -85 -202q-34 -31 -108 -77q82 -87 82 -198q0 -129 -87 -214q-125 -121 -361 -121q-304 0 -434 176q-57 77 -71 195h206
q6 -80 49 -121q88 -86 256 -86q153 0 218 78q24 29 24 74t-24 77q-33 43 -147 88l-375 150q-142 57 -199 118q-75 79 -75 185q0 175 207 277q-82 101 -82 197q0 168 158 255q106 58 294 58q264 0 374 -135q64 -80 70 -218zM458 788q-129 -54 -129 -161q0 -101 138 -156
l364 -143q67 -26 139 -60q117 62 117 160q0 72 -65 118q-36 25 -109 55l-318 126q-95 38 -137 61z" />
    <glyph glyph-name="dieresis" unicode="&#xa8;" vert-adv-y="1355" 
d="M178 1365h208v-218h-208v218zM638 1365h208v-218h-208v218z" />
    <glyph glyph-name="copyright" unicode="&#xa9;" horiz-adv-x="1593" vert-adv-y="1355" 
d="M1171 606q-10 -125 -84 -213q-103 -124 -285 -124q-191 0 -302 137q-89 111 -89 279q0 180 106 297q110 121 290 121q166 0 269 -108q74 -77 83 -178h-104q-15 63 -58 103q-73 68 -190 68q-130 0 -203 -100q-59 -81 -59 -203q0 -121 56 -198q73 -102 204 -102
q128 0 202 83q47 53 58 138h106zM807 1390q189 0 359 -105q170 -104 260 -281q77 -152 77 -322q0 -199 -104 -369q-104 -169 -280 -260q-152 -78 -322 -78q-197 0 -368 104q-170 103 -261 282q-78 152 -78 320q0 201 104 372q102 168 284 260q150 77 329 77zM790 1291
q-161 0 -305 -89q-145 -90 -222 -243q-66 -131 -66 -276q0 -253 177 -432q176 -177 423 -177t423 178q84 86 130 198q45 112 45 231q0 173 -88 320q-86 144 -238 224q-127 66 -279 66z" />
    <glyph glyph-name="ordfeminine" unicode="&#xaa;" horiz-adv-x="824" vert-adv-y="1355" 
d="M234 945h-140q9 87 47 132q80 95 277 95q154 0 233 -50q66 -41 66 -148v-265q0 -44 12 -57t35 -13q15 0 39 3v-92q-37 -12 -72 -12q-71 0 -107 30q-21 18 -35 53q-105 -91 -265 -91q-116 0 -182 48q-70 50 -70 136q0 70 50 118q42 40 130 56q32 6 128 16q147 14 176 29
q28 15 28 46q0 87 -162 87q-112 0 -156 -39q-27 -24 -32 -82zM584 840q-93 -26 -232 -40q-71 -7 -100 -21q-37 -17 -37 -58q0 -85 143 -85q121 0 185 60q28 25 35 51q6 18 6 55v38z" />
    <glyph glyph-name="guillemotleft" unicode="&#xab;" horiz-adv-x="967" vert-adv-y="1355" 
d="M82 423v192l356 261v-198l-213 -159l213 -159v-198zM505 423v192l357 261v-198l-213 -159l213 -159v-198z" />
    <glyph glyph-name="logicalnot" unicode="&#xac;" vert-adv-y="1355" 
d="M745 0v389h-677v189h887v-578h-210z" />
    <glyph glyph-name="sfthyphen" unicode="&#xad;" horiz-adv-x="701" vert-adv-y="1355" 
d="M701 607v-177h-701v177h701z" />
    <glyph glyph-name="registered" unicode="&#xae;" horiz-adv-x="1593" vert-adv-y="1355" 
d="M495 1081h337q119 0 184 -38q101 -60 101 -183q0 -138 -141 -195q62 -20 93 -65q23 -35 31 -94q2 -21 6 -97q5 -96 21 -127h-128q-14 25 -21 152q-6 89 -21 118q-34 69 -171 71h-159v-341h-132v799zM627 995v-290h167q191 0 191 147q0 143 -176 143h-182zM807 1390
q189 0 359 -104q170 -105 260 -282q77 -153 77 -322q0 -199 -104 -369q-104 -169 -281 -260q-151 -78 -321 -78q-197 0 -368 104q-170 103 -261 282q-78 152 -78 320q0 200 104 372q102 168 283 261q151 76 330 76zM790 1291q-161 0 -305 -89q-145 -90 -222 -243
q-66 -131 -66 -277q0 -252 177 -431q176 -177 423 -177t422 178q176 179 176 429q0 172 -88 320q-86 144 -238 224q-127 66 -279 66z" />
    <glyph glyph-name="overscore" unicode="&#xaf;" vert-adv-y="1355" 
d="M0 1765h1024v-131h-1024v131z" />
    <glyph glyph-name="degree" unicode="&#xb0;" vert-adv-y="1355" 
d="M518 1364q122 0 213 -94q83 -86 83 -206q0 -127 -89 -216q-88 -87 -211 -87q-134 0 -225 99q-78 85 -78 202q0 142 102 227q89 75 205 75zM508 1273q-76 0 -135 -55q-69 -65 -69 -155q0 -78 51 -138q62 -73 158 -73q81 0 143 59q65 62 65 149q0 88 -60 148
q-63 65 -153 65z" />
    <glyph glyph-name="plusminus" unicode="&#xb1;" vert-adv-y="1355" 
d="M37 784h418v400h112v-400h419v-108h-419v-390h-112v390h-418v108zM37 197h949v-108h-949v108z" />
    <glyph glyph-name="twosuperior" unicode="&#xb2;" horiz-adv-x="860" vert-adv-y="1355" 
d="M762 547h-684q2 114 80 202q59 62 200 129l109 53q81 39 111 65q42 37 42 99q0 72 -56 112q-51 36 -131 36q-105 0 -156 -56q-35 -37 -44 -126h-145q8 125 64 189q94 107 285 107q137 0 225 -58q105 -69 105 -199q0 -96 -60 -158q-53 -56 -177 -115l-102 -48
q-148 -70 -172 -114h506v-118z" />
    <glyph glyph-name="threesuperior" unicode="&#xb3;" horiz-adv-x="860" vert-adv-y="1355" 
d="M342 914v110h66q84 0 125 14q33 12 53 44q13 21 13 47q0 54 -46 83q-49 31 -131 31q-109 0 -156 -52q-28 -31 -36 -109h-138q21 275 335 275q122 0 205 -45q47 -25 77 -69q33 -47 33 -101q0 -98 -101 -163q135 -58 135 -189q0 -94 -68 -163q-96 -97 -290 -97
q-338 0 -346 289h141q3 -82 44 -121q55 -54 168 -54q98 0 157 42q51 37 51 101q0 127 -226 127h-65z" />
    <glyph glyph-name="acute" unicode="&#xb4;" vert-adv-y="1355" 
d="M809 1386l-246 -263h-156l131 263h271z" />
    <glyph glyph-name="mu" unicode="&#xb5;" vert-adv-y="1355" 
d="M89 -343v1326h184v-541q0 -94 11 -137q21 -85 101 -138q55 -36 119 -36q129 0 193 114q53 94 53 212v526h184v-983h-184v171q-75 -195 -249 -195q-97 0 -165 59q-30 27 -63 82v-460h-184z" />
    <glyph glyph-name="paragraph" unicode="&#xb6;" horiz-adv-x="1184" vert-adv-y="1355" 
d="M482 -232v878q-22 -1 -32 -1q-113 0 -207 53q-77 43 -122 123q-45 81 -45 180q0 123 67 217q68 96 198 129q74 18 186 18h497v-88h-115v-1509h-110v1509h-207v-1509h-110z" />
    <glyph glyph-name="middot" unicode="&#xb7;" horiz-adv-x="518" vert-adv-y="1355" 
d="M138 631h242v-225h-242v225z" />
    <glyph glyph-name="cedilla" unicode="&#xb8;" vert-adv-y="1355" 
d="M408 -89h208v-128q3 -249 -208 -258v88q100 0 99 93h-99v205z" />
    <glyph glyph-name="onesuperior" unicode="&#xb9;" horiz-adv-x="860" vert-adv-y="1355" 
d="M558 546h-145v565h-232v104q143 1 209 41q47 32 51 101h117v-811z" />
    <glyph glyph-name="ordmasculine" unicode="&#xba;" horiz-adv-x="890" vert-adv-y="1355" 
d="M451 1172q155 0 259 -88q107 -90 107 -233q0 -164 -136 -256q-98 -65 -236 -65q-163 0 -266 88q-107 90 -107 236q0 160 137 253q96 65 242 65zM440 1066q-113 0 -177 -75q-48 -56 -48 -140q0 -98 65 -158q63 -57 164 -57q118 0 182 75q48 57 48 141q0 98 -65 157
q-62 57 -169 57z" />
    <glyph glyph-name="guillemotright" unicode="&#xbb;" horiz-adv-x="967" vert-adv-y="1355" 
d="M885 614v-191l-357 -261v198l213 159l-213 159v198zM461 614v-191l-356 -261v198l213 159l-213 159v198z" />
    <glyph glyph-name="onequarter" unicode="&#xbc;" horiz-adv-x="1960" vert-adv-y="1355" 
d="M558 546h-145v565h-232v104q143 1 209 41q47 32 51 101h117v-811zM1318 1365l-582 -1365h-95l582 1365h95zM1621 192h-442v114l462 505h118v-505h138v-114h-138v-192h-138v192zM1621 306v317l-288 -317h288z" />
    <glyph glyph-name="onehalf" unicode="&#xbd;" horiz-adv-x="1960" vert-adv-y="1355" 
d="M558 546h-145v565h-232v104q143 1 209 41q47 32 51 101h117v-811zM1318 1365l-582 -1365h-95l582 1365h95zM1862 0h-684q3 116 80 203q60 62 200 129l109 52q82 40 111 66q42 37 42 99q0 72 -56 112q-51 36 -131 36q-105 0 -157 -56q-34 -37 -43 -126h-145q8 125 64 189
q94 107 285 107q137 0 225 -58q105 -69 105 -199q0 -96 -60 -159q-52 -55 -178 -115l-101 -48q-147 -70 -172 -114h506v-118z" />
    <glyph glyph-name="threequarters" unicode="&#xbe;" horiz-adv-x="1960" vert-adv-y="1355" 
d="M342 914v110h66q84 0 125 14q33 12 53 44q13 21 13 47q0 54 -46 83q-49 31 -131 31q-109 0 -156 -52q-28 -31 -36 -109h-138q21 275 335 275q122 0 205 -45q47 -25 77 -69q33 -47 33 -101q0 -98 -101 -163q135 -58 135 -189q0 -94 -68 -163q-96 -97 -290 -97
q-338 0 -346 289h141q3 -82 44 -121q55 -54 168 -54q98 0 157 42q51 37 51 101q0 127 -226 127h-65zM1318 1365l-582 -1365h-94l582 1365h94zM1622 192h-442v114l462 505h118v-505h137v-114h-137v-192h-138v192zM1622 306v317l-288 -317h288z" />
    <glyph glyph-name="questiondown" unicode="&#xbf;" horiz-adv-x="1142" vert-adv-y="1355" 
d="M490 680h203q1 -30 1 -47q0 -109 -51 -177q-43 -58 -167 -145q-118 -83 -161 -139q-49 -66 -49 -147q0 -122 94 -188q75 -52 190 -52q180 0 262 108q55 72 58 188h210q-2 -133 -42 -212q-62 -124 -212 -193q-127 -58 -280 -58q-205 0 -343 102q-142 105 -142 297
q0 133 76 235q53 70 173 150q98 66 131 100q53 54 53 120q0 23 -4 58zM473 785v225h232v-225h-232z" />
    <glyph glyph-name="Agrave" unicode="&#xc0;" horiz-adv-x="1539" vert-adv-y="1355" 
d="M1092 394h-661l-177 -394h-240l635 1365h237l639 -1365h-254zM1013 571l-253 558l-251 -558h504zM460 1761h270l132 -263h-157z" />
    <glyph glyph-name="Aacute" unicode="&#xc1;" horiz-adv-x="1539" vert-adv-y="1355" 
d="M1092 394h-661l-177 -394h-240l635 1365h237l639 -1365h-254zM1013 571l-253 558l-251 -558h504zM1080 1761l-246 -263h-156l131 263h271z" />
    <glyph glyph-name="Acircumflex" unicode="&#xc2;" horiz-adv-x="1539" vert-adv-y="1355" 
d="M1092 394h-661l-177 -394h-240l635 1365h237l639 -1365h-254zM1013 571l-253 558l-251 -558h504zM670 1761h200l263 -263h-231l-142 138l-145 -138h-208z" />
    <glyph glyph-name="Atilde" unicode="&#xc3;" horiz-adv-x="1539" vert-adv-y="1355" 
d="M1092 394h-661l-177 -394h-240l635 1365h237l639 -1365h-254zM1013 571l-253 558l-251 -558h504zM1038 1735h125q-10 -104 -62 -167q-54 -64 -132 -64q-84 0 -302 81q-53 20 -89 20q-49 0 -79 -84h-122q14 77 44 127q58 97 163 97q79 0 287 -73q60 -21 97 -21q54 0 70 84
z" />
    <glyph glyph-name="Adieresis" unicode="&#xc4;" horiz-adv-x="1539" vert-adv-y="1355" 
d="M1092 394h-661l-177 -394h-240l635 1365h237l639 -1365h-254zM1013 571l-253 558l-251 -558h504zM598 1526h-212v208h212v-208zM1152 1526h-212v208h212v-208z" />
    <glyph glyph-name="Aring" unicode="&#xc5;" horiz-adv-x="1539" vert-adv-y="1355" 
d="M1092 394h-661l-177 -394h-240l635 1365h237l639 -1365h-254zM1013 571l-253 558l-251 -558h504zM773 1859q79 0 140 -46q69 -51 69 -136q0 -59 -39 -104q-64 -73 -173 -73q-111 0 -174 73q-39 45 -39 106q0 94 85 146q56 34 131 34zM767 1784q-56 0 -92 -30
q-33 -28 -33 -74q0 -53 43 -82q34 -23 85 -23q58 0 94 30q33 28 33 75q0 53 -43 81q-33 23 -87 23z" />
    <glyph glyph-name="AE" unicode="&#xc6;" horiz-adv-x="2295" vert-adv-y="1355" 
d="M1056 395h-609l-207 -395h-226l721 1365h1440v-191h-907v-382h852v-191h-852v-410h924v-191h-1136v395zM1056 572v602h-202l-315 -602h517z" />
    <glyph glyph-name="Ccedilla" unicode="&#xc7;" horiz-adv-x="1619" vert-adv-y="1355" 
d="M1330 539h214q-42 -228 -166 -365q-188 -208 -534 -208q-398 0 -596 265q-136 183 -136 452q0 270 137 450q201 266 599 266q334 0 521 -189q122 -124 163 -333h-214q-25 119 -91 194q-135 151 -382 151q-246 0 -390 -161q-132 -148 -132 -378q0 -231 135 -379
q148 -161 390 -161q257 0 392 173q64 82 90 223zM738 -89h208v-128q2 -250 -208 -258v88q100 0 99 93h-99v205z" />
    <glyph glyph-name="Egrave" unicode="&#xc8;" horiz-adv-x="1408" vert-adv-y="1355" 
d="M1304 0h-1136v1365h1119v-191h-907v-382h852v-191h-852v-410h924v-191zM394 1761h270l132 -263h-157z" />
    <glyph glyph-name="Eacute" unicode="&#xc9;" horiz-adv-x="1408" vert-adv-y="1355" 
d="M1304 0h-1136v1365h1119v-191h-907v-382h852v-191h-852v-410h924v-191zM1014 1761l-246 -263h-156l131 263h271z" />
    <glyph glyph-name="Ecircumflex" unicode="&#xca;" horiz-adv-x="1408" vert-adv-y="1355" 
d="M1304 0h-1136v1365h1119v-191h-907v-382h852v-191h-852v-410h924v-191zM604 1761h200l263 -263h-231l-142 138l-145 -138h-208z" />
    <glyph glyph-name="Edieresis" unicode="&#xcb;" horiz-adv-x="1408" vert-adv-y="1355" 
d="M1304 0h-1136v1365h1119v-191h-907v-382h852v-191h-852v-410h924v-191zM533 1526h-212v208h212v-208zM1087 1526h-212v208h212v-208z" />
    <glyph glyph-name="Igrave" unicode="&#xcc;" horiz-adv-x="547" vert-adv-y="1355" 
d="M380 0h-212v1365h212v-1365zM-36 1761h270l132 -263h-157z" />
    <glyph glyph-name="Iacute" unicode="&#xcd;" horiz-adv-x="547" vert-adv-y="1355" 
d="M380 0h-212v1365h212v-1365zM584 1761l-246 -263h-156l131 263h271z" />
    <glyph glyph-name="Icircumflex" unicode="&#xce;" horiz-adv-x="547" vert-adv-y="1355" 
d="M380 0h-212v1365h212v-1365zM174 1761h200l263 -263h-231l-142 138l-145 -138h-208z" />
    <glyph glyph-name="Idieresis" unicode="&#xcf;" horiz-adv-x="547" vert-adv-y="1355" 
d="M380 0h-212v1365h212v-1365zM119 1526h-190v208h190v-208zM619 1526h-190v208h190v-208z" />
    <glyph glyph-name="Eth" unicode="&#xd0;" horiz-adv-x="1594" vert-adv-y="1355" 
d="M168 615h-96v177h96v573h611q191 0 303 -32q400 -114 400 -655q0 -375 -208 -551q-115 -97 -277 -116q-94 -11 -220 -11h-609v615zM380 615v-424h414q153 0 232 27q244 85 244 465q0 281 -138 403q-74 65 -187 80q-66 8 -151 8h-414v-382h435v-177h-435z" />
    <glyph glyph-name="Ntilde" unicode="&#xd1;" horiz-adv-x="1710" vert-adv-y="1355" 
d="M1542 0h-254l-908 1112v-1112h-212v1365h266l896 -1102v1102h212v-1365zM1123 1735h125q-10 -104 -62 -167q-54 -64 -132 -64q-84 0 -302 81q-53 20 -89 20q-49 0 -79 -84h-122q14 77 44 127q58 97 163 97q79 0 287 -73q60 -21 97 -21q54 0 70 84z" />
    <glyph glyph-name="Ograve" unicode="&#xd2;" horiz-adv-x="1762" vert-adv-y="1355" 
d="M892 1399q227 0 406 -96q196 -105 288 -309q64 -143 64 -312q0 -202 -92 -366q-107 -193 -315 -281q-162 -69 -362 -69q-356 0 -565 203q-109 106 -163 259q-41 120 -41 253q0 204 91 369q107 192 316 280q161 69 373 69zM873 1222q-242 0 -392 -144q-157 -149 -157 -396
q0 -245 157 -395q150 -144 400 -144t401 144q75 73 117 179q39 101 39 215q0 166 -76 296q-144 245 -489 245zM571 1761h270l132 -263h-157z" />
    <glyph glyph-name="Oacute" unicode="&#xd3;" horiz-adv-x="1762" vert-adv-y="1355" 
d="M892 1399q227 0 406 -96q196 -105 288 -309q64 -143 64 -312q0 -202 -92 -366q-107 -193 -315 -281q-162 -69 -362 -69q-356 0 -565 203q-109 106 -163 259q-41 120 -41 253q0 204 91 369q107 192 316 280q161 69 373 69zM873 1222q-242 0 -392 -144q-157 -149 -157 -396
q0 -245 157 -395q150 -144 400 -144t401 144q75 73 117 179q39 101 39 215q0 166 -76 296q-144 245 -489 245zM1192 1761l-246 -263h-156l131 263h271z" />
    <glyph glyph-name="Ocircumflex" unicode="&#xd4;" horiz-adv-x="1762" vert-adv-y="1355" 
d="M892 1399q227 0 406 -96q196 -105 288 -309q64 -143 64 -312q0 -202 -92 -366q-107 -193 -315 -281q-162 -69 -362 -69q-356 0 -565 203q-109 106 -163 259q-41 120 -41 253q0 204 91 369q107 192 316 280q161 69 373 69zM873 1222q-242 0 -392 -144q-157 -149 -157 -396
q0 -245 157 -395q150 -144 400 -144t401 144q75 73 117 179q39 101 39 215q0 166 -76 296q-144 245 -489 245zM781 1761h200l263 -263h-231l-142 138l-145 -138h-208z" />
    <glyph glyph-name="Otilde" unicode="&#xd5;" horiz-adv-x="1762" vert-adv-y="1355" 
d="M892 1399q227 0 406 -96q196 -105 288 -309q64 -143 64 -312q0 -202 -92 -366q-107 -193 -315 -281q-162 -69 -362 -69q-356 0 -565 203q-109 106 -163 259q-41 120 -41 253q0 204 91 369q107 192 316 280q161 69 373 69zM873 1222q-242 0 -392 -144q-157 -149 -157 -396
q0 -245 157 -395q150 -144 400 -144t401 144q75 73 117 179q39 101 39 215q0 166 -76 296q-144 245 -489 245zM1149 1735h125q-10 -104 -62 -167q-54 -64 -132 -64q-84 0 -302 81q-53 20 -89 20q-49 0 -79 -84h-122q14 77 44 127q58 97 163 97q79 0 287 -73q60 -21 97 -21
q54 0 70 84z" />
    <glyph glyph-name="Odieresis" unicode="&#xd6;" horiz-adv-x="1762" vert-adv-y="1355" 
d="M892 1399q227 0 406 -96q196 -105 288 -309q64 -143 64 -312q0 -202 -92 -366q-107 -193 -315 -281q-162 -69 -362 -69q-356 0 -565 203q-109 106 -163 259q-41 120 -41 253q0 204 91 369q107 192 316 280q161 69 373 69zM873 1222q-242 0 -392 -144q-157 -149 -157 -396
q0 -245 157 -395q150 -144 400 -144t401 144q75 73 117 179q39 101 39 215q0 166 -76 296q-144 245 -489 245zM710 1526h-212v208h212v-208zM1264 1526h-212v208h212v-208z" />
    <glyph glyph-name="multiply" unicode="&#xd7;" vert-adv-y="1355" 
d="M195 1105l316 -318l319 320l79 -78l-320 -319l318 -317l-76 -77l-317 319l-319 -320l-79 78l320 319l-317 317z" />
    <glyph glyph-name="Oslash" unicode="&#xd8;" horiz-adv-x="1762" vert-adv-y="1355" 
d="M386 109l-170 -159l-113 121l162 153q-154 193 -154 459q0 202 92 366q107 193 315 281q162 69 362 69q286 0 487 -137l178 167l113 -123l-167 -158q159 -188 159 -467q0 -201 -92 -365q-107 -193 -315 -281q-162 -69 -361 -69q-294 0 -496 143zM530 245
q144 -102 351 -102q250 0 400 144q76 73 118 179q39 101 39 215q0 188 -96 327zM415 365l808 761q-140 96 -344 96q-249 0 -399 -144q-77 -73 -118 -179q-39 -101 -39 -216q0 -176 92 -318z" />
    <glyph glyph-name="Ugrave" unicode="&#xd9;" horiz-adv-x="1609" vert-adv-y="1355" 
d="M1229 1365h212v-883q0 -257 -187 -394q-168 -122 -449 -122q-308 0 -478 145q-159 135 -159 371v883h212v-876q0 -171 120 -260q114 -85 305 -85q190 0 305 85q119 89 119 260v876zM495 1761h270l132 -263h-157z" />
    <glyph glyph-name="Uacute" unicode="&#xda;" horiz-adv-x="1609" vert-adv-y="1355" 
d="M1229 1365h212v-883q0 -257 -187 -394q-168 -122 -449 -122q-308 0 -478 145q-159 135 -159 371v883h212v-876q0 -171 120 -260q114 -85 305 -85q190 0 305 85q119 89 119 260v876zM1115 1761l-246 -263h-156l131 263h271z" />
    <glyph glyph-name="Ucircumflex" unicode="&#xdb;" horiz-adv-x="1609" vert-adv-y="1355" 
d="M1229 1365h212v-883q0 -257 -187 -394q-168 -122 -449 -122q-308 0 -478 145q-159 135 -159 371v883h212v-876q0 -171 120 -260q114 -85 305 -85q190 0 305 85q119 89 119 260v876zM705 1761h200l263 -263h-231l-142 138l-145 -138h-208z" />
    <glyph glyph-name="Udieresis" unicode="&#xdc;" horiz-adv-x="1609" vert-adv-y="1355" 
d="M1229 1365h212v-883q0 -257 -187 -394q-168 -122 -449 -122q-308 0 -478 145q-159 135 -159 371v883h212v-876q0 -171 120 -260q114 -85 305 -85q190 0 305 85q119 89 119 260v876zM633 1526h-212v208h212v-208zM1187 1526h-212v208h212v-208z" />
    <glyph glyph-name="Yacute" unicode="&#xdd;" horiz-adv-x="1416" vert-adv-y="1355" 
d="M814 0h-212v568l-602 797h273l440 -618l446 618h258l-603 -797v-568zM1019 1761l-246 -263h-156l131 263h271z" />
    <glyph glyph-name="Thorn" unicode="&#xde;" horiz-adv-x="1420" vert-adv-y="1355" 
d="M380 323v-323h-212v1365h212v-232h531q189 0 300 -85q140 -108 140 -319t-141 -319q-115 -87 -292 -87h-538zM380 500h478q139 0 203 49q78 59 78 179t-78 179q-64 49 -203 49h-478v-456z" />
    <glyph glyph-name="germandbls" unicode="&#xdf;" horiz-adv-x="1301" vert-adv-y="1355" 
d="M549 669v164h111q263 0 263 187q0 121 -101 172q-65 33 -169 33q-152 0 -228 -58q-75 -57 -75 -216v-951h-198v942q0 177 47 255q66 109 207 158q104 37 241 37q215 0 341 -90q133 -95 133 -270q0 -112 -73 -188q-30 -32 -94 -72q94 -38 146 -84q101 -93 101 -272
q0 -223 -160 -340q-133 -97 -358 -97q-55 0 -140 7v176q78 -16 138 -16q167 0 250 88q65 69 65 182q0 151 -109 210q-79 43 -220 43h-118z" />
    <glyph glyph-name="agrave" unicode="&#xe0;" horiz-adv-x="1272" vert-adv-y="1355" 
d="M337 676h-199q14 132 70 204q124 157 438 157q247 0 370 -83q63 -42 83 -112q16 -52 16 -129v-448q0 -81 24 -106q23 -24 66 -24q19 0 48 3v-136q-50 -16 -103 -16q-110 0 -164 49q-33 30 -59 103q-63 -60 -123 -94q-128 -72 -310 -72q-183 0 -287 80q-106 81 -106 220
q0 113 75 190q66 68 204 95q47 9 205 26q203 21 262 40q79 25 79 100q0 157 -272 157q-186 0 -261 -67q-47 -42 -56 -137zM927 503q-159 -49 -388 -72q-116 -13 -165 -37q-68 -32 -68 -109q0 -156 244 -156q199 0 306 103q48 46 61 92q10 34 10 97v82zM340 1386h270
l132 -263h-157z" />
    <glyph glyph-name="aacute" unicode="&#xe1;" horiz-adv-x="1272" vert-adv-y="1355" 
d="M337 676h-199q14 132 70 204q124 157 438 157q247 0 370 -83q63 -42 83 -112q16 -52 16 -129v-448q0 -81 24 -106q23 -24 66 -24q19 0 48 3v-136q-50 -16 -103 -16q-110 0 -164 49q-33 30 -59 103q-63 -60 -123 -94q-128 -72 -310 -72q-183 0 -287 80q-106 81 -106 220
q0 113 75 190q66 68 204 95q47 9 205 26q203 21 262 40q79 25 79 100q0 157 -272 157q-186 0 -261 -67q-47 -42 -56 -137zM927 503q-159 -49 -388 -72q-116 -13 -165 -37q-68 -32 -68 -109q0 -156 244 -156q199 0 306 103q48 46 61 92q10 34 10 97v82zM933 1386l-246 -263
h-156l131 263h271z" />
    <glyph glyph-name="acircumflex" unicode="&#xe2;" horiz-adv-x="1272" vert-adv-y="1355" 
d="M337 676h-199q14 132 70 204q124 157 438 157q247 0 370 -83q63 -42 83 -112q16 -52 16 -129v-448q0 -81 24 -106q23 -24 66 -24q19 0 48 3v-136q-50 -16 -103 -16q-110 0 -164 49q-33 30 -59 103q-63 -60 -123 -94q-128 -72 -310 -72q-183 0 -287 80q-106 81 -106 220
q0 113 75 190q66 68 204 95q47 9 205 26q203 21 262 40q79 25 79 100q0 157 -272 157q-186 0 -261 -67q-47 -42 -56 -137zM927 503q-159 -49 -388 -72q-116 -13 -165 -37q-68 -32 -68 -109q0 -156 244 -156q199 0 306 103q48 46 61 92q10 34 10 97v82zM536 1386h200
l263 -263h-231l-142 137l-145 -137h-208z" />
    <glyph glyph-name="atilde" unicode="&#xe3;" horiz-adv-x="1272" vert-adv-y="1355" 
d="M337 676h-199q14 132 70 204q124 157 438 157q247 0 370 -83q63 -42 83 -112q16 -52 16 -129v-448q0 -81 24 -106q23 -24 66 -24q19 0 48 3v-136q-50 -16 -103 -16q-110 0 -164 49q-33 30 -59 103q-63 -60 -123 -94q-128 -72 -310 -72q-183 0 -287 80q-106 81 -106 220
q0 113 75 190q66 68 204 95q47 9 205 26q203 21 262 40q79 25 79 100q0 157 -272 157q-186 0 -261 -67q-47 -42 -56 -137zM927 503q-159 -49 -388 -72q-116 -13 -165 -37q-68 -32 -68 -109q0 -156 244 -156q199 0 306 103q48 46 61 92q10 34 10 97v82zM904 1367h125
q-9 -105 -62 -168q-54 -64 -132 -64q-84 0 -302 81q-53 20 -89 20q-49 0 -79 -84h-122q14 77 44 128q28 46 74 73q42 24 89 24q78 0 287 -74q60 -21 97 -21q55 0 70 85z" />
    <glyph glyph-name="adieresis" unicode="&#xe4;" horiz-adv-x="1272" vert-adv-y="1355" 
d="M337 676h-199q14 132 70 204q124 157 438 157q247 0 370 -83q63 -42 83 -112q16 -52 16 -129v-448q0 -81 24 -106q23 -24 66 -24q19 0 48 3v-136q-50 -16 -103 -16q-110 0 -164 49q-33 30 -59 103q-63 -60 -123 -94q-128 -72 -310 -72q-183 0 -287 80q-106 81 -106 220
q0 113 75 190q66 68 204 95q47 9 205 26q203 21 262 40q79 25 79 100q0 157 -272 157q-186 0 -261 -67q-47 -42 -56 -137zM927 503q-159 -49 -388 -72q-116 -13 -165 -37q-68 -32 -68 -109q0 -156 244 -156q199 0 306 103q48 46 61 92q10 34 10 97v82zM302 1365h208v-218
h-208v218zM762 1365h208v-218h-208v218z" />
    <glyph glyph-name="aring" unicode="&#xe5;" horiz-adv-x="1272" vert-adv-y="1355" 
d="M337 676h-199q14 132 70 204q124 157 438 157q247 0 370 -83q63 -42 83 -112q16 -52 16 -129v-448q0 -81 24 -106q23 -24 66 -24q19 0 48 3v-136q-50 -16 -103 -16q-110 0 -164 49q-33 30 -59 103q-63 -60 -123 -94q-128 -72 -310 -72q-183 0 -287 80q-106 81 -106 220
q0 113 75 190q66 68 204 95q47 9 205 26q203 21 262 40q79 25 79 100q0 157 -272 157q-186 0 -261 -67q-47 -42 -56 -137zM927 503q-159 -49 -388 -72q-116 -13 -165 -37q-68 -32 -68 -109q0 -156 244 -156q199 0 306 103q48 46 61 92q10 34 10 97v82zM639 1518
q79 0 140 -46q69 -51 69 -136q0 -61 -39 -105q-65 -73 -173 -73q-111 0 -174 73q-39 46 -39 107q0 94 85 146q56 34 131 34zM633 1443q-56 0 -92 -30q-33 -28 -33 -75q0 -53 43 -82q34 -23 85 -23q58 0 94 30q33 29 33 76q0 52 -43 81q-34 23 -87 23z" />
    <glyph glyph-name="ae" unicode="&#xe6;" horiz-adv-x="2101" vert-adv-y="1355" 
d="M2000 454h-901q14 -124 72 -201q93 -123 289 -123q214 0 312 171h214q-42 -108 -122 -183q-155 -145 -398 -145q-167 0 -295 58q-121 56 -177 178q-47 -95 -131 -149q-138 -88 -332 -88q-197 0 -315 78q-55 35 -86 99q-28 58 -28 128q0 129 91 205q82 68 250 88
q55 6 190 15q224 16 261 36q41 23 41 86q0 173 -300 173q-157 0 -227 -57q-49 -39 -67 -124h-200q43 338 502 338q181 0 289 -58q75 -41 116 -132q153 190 415 190q212 0 352 -107q187 -143 185 -476zM1800 605q-11 103 -74 172q-93 103 -278 103q-200 0 -292 -120
q-50 -65 -59 -155h703zM935 505q-5 -2 -11 -5q-35 -14 -66 -22q-76 -18 -235 -29q-199 -15 -254 -47q-69 -38 -69 -115q0 -158 248 -158q150 0 261 60q75 41 100 106q26 65 26 210z" />
    <glyph glyph-name="ccedilla" unicode="&#xe7;" horiz-adv-x="1249" vert-adv-y="1355" 
d="M975 366h196q-28 -126 -97 -212q-146 -181 -418 -181q-297 0 -440 175q-115 140 -115 352q0 264 163 406q149 131 391 131q188 0 318 -83q148 -95 188 -277h-192q-69 203 -307 203q-146 0 -242 -76q-121 -95 -121 -298q0 -176 93 -272q100 -104 272 -104q242 0 311 236z
M552 -89h208v-128q3 -250 -208 -258v88q100 1 99 93h-99v205z" />
    <glyph glyph-name="egrave" unicode="&#xe8;" horiz-adv-x="1331" vert-adv-y="1355" 
d="M1229 446h-935q10 -100 61 -169q108 -147 326 -147q238 0 316 185h214q-149 -342 -548 -342q-293 0 -445 185q-117 144 -117 342q0 262 183 412q154 126 383 126q254 0 407 -148q155 -148 155 -444zM1027 601q-25 96 -75 155q-107 125 -289 125t-289 -125
q-49 -59 -75 -155h728zM369 1386h270l132 -263h-157z" />
    <glyph glyph-name="eacute" unicode="&#xe9;" horiz-adv-x="1331" vert-adv-y="1355" 
d="M1229 446h-935q10 -100 61 -169q108 -147 326 -147q238 0 316 185h214q-149 -342 -548 -342q-293 0 -445 185q-117 144 -117 342q0 262 183 412q154 126 383 126q254 0 407 -148q155 -148 155 -444zM1027 601q-25 96 -75 155q-107 125 -289 125t-289 -125
q-49 -59 -75 -155h728zM962 1386l-246 -263h-156l131 263h271z" />
    <glyph glyph-name="ecircumflex" unicode="&#xea;" horiz-adv-x="1331" vert-adv-y="1355" 
d="M1229 446h-935q10 -100 61 -169q108 -147 326 -147q238 0 316 185h214q-149 -342 -548 -342q-293 0 -445 185q-117 144 -117 342q0 262 183 412q154 126 383 126q254 0 407 -148q155 -148 155 -444zM1027 601q-25 96 -75 155q-107 125 -289 125t-289 -125
q-49 -59 -75 -155h728zM565 1386h200l263 -263h-231l-142 137l-145 -137h-208z" />
    <glyph glyph-name="edieresis" unicode="&#xeb;" horiz-adv-x="1331" vert-adv-y="1355" 
d="M1229 446h-935q10 -100 61 -169q108 -147 326 -147q238 0 316 185h214q-149 -342 -548 -342q-293 0 -445 185q-117 144 -117 342q0 262 183 412q154 126 383 126q254 0 407 -148q155 -148 155 -444zM1027 601q-25 96 -75 155q-107 125 -289 125t-289 -125
q-49 -59 -75 -155h728zM331 1365h208v-218h-208v218zM791 1365h208v-218h-208v218z" />
    <glyph glyph-name="igrave" unicode="&#xec;" horiz-adv-x="501" vert-adv-y="1355" 
d="M151 0v1012h198v-1012h-198zM-46 1386h270l132 -263h-157z" />
    <glyph glyph-name="iacute" unicode="&#xed;" horiz-adv-x="501" vert-adv-y="1355" 
d="M151 0v1012h198v-1012h-198zM547 1386l-246 -263h-156l131 263h271z" />
    <glyph glyph-name="icircumflex" unicode="&#xee;" horiz-adv-x="501" vert-adv-y="1355" 
d="M152 0v1012h198v-1012h-198zM151 1386h200l263 -263h-231l-142 137l-145 -137h-208z" />
    <glyph glyph-name="idieresis" unicode="&#xef;" horiz-adv-x="501" vert-adv-y="1355" 
d="M152 0v1012h198v-1012h-198zM-50 1365h187v-218h-187v218zM365 1365h187v-218h-187v218z" />
    <glyph glyph-name="eth" unicode="&#xf0;" horiz-adv-x="1377" vert-adv-y="1355" 
d="M738 1036q-60 57 -113 107l-104 -104l-77 77l101 101q-30 28 -100 87l120 115q50 -41 93 -79l5 -4l119 118l77 -77l-115 -114q192 -179 356 -363q176 -156 176 -396q0 -165 -87 -293t-231 -187q-127 -52 -269 -52q-260 0 -422 148q-166 150 -166 384q0 166 87 295
q87 128 231 186q128 52 268 52q29 0 51 -1zM682 880q-188 0 -294 -130q-82 -99 -82 -245q0 -173 110 -277q105 -99 273 -99q195 0 301 130q81 98 81 247q0 171 -110 275q-104 99 -279 99z" />
    <glyph glyph-name="ntilde" unicode="&#xf1;" horiz-adv-x="1305" vert-adv-y="1355" 
d="M152 0v1010h198v-144q65 64 115 96q116 75 279 75q198 0 314 -104q62 -55 80 -130q16 -65 16 -160v-643h-198v629q0 99 -27 140q-67 101 -223 101q-138 0 -240 -73q-63 -45 -94 -114q-22 -47 -22 -96v-587h-198zM921 1367h125q-9 -105 -62 -168q-54 -64 -132 -64
q-84 0 -302 81q-53 20 -89 20q-49 0 -79 -84h-122q14 77 44 128q28 46 74 73q42 24 89 24q78 0 287 -74q60 -21 97 -21q55 0 70 85z" />
    <glyph glyph-name="ograve" unicode="&#xf2;" horiz-adv-x="1377" vert-adv-y="1355" 
d="M699 1037q247 0 411 -148q166 -149 166 -384q0 -166 -87 -294t-231 -186q-127 -52 -269 -52q-260 0 -422 147q-166 151 -166 390q0 264 213 417q152 110 385 110zM682 880q-188 0 -294 -130q-82 -99 -82 -245q0 -173 110 -276q105 -99 273 -99q195 0 301 130
q81 98 81 246q0 172 -110 275q-104 99 -279 99zM392 1386h270l132 -263h-157z" />
    <glyph glyph-name="oacute" unicode="&#xf3;" horiz-adv-x="1377" vert-adv-y="1355" 
d="M699 1037q247 0 411 -148q166 -149 166 -384q0 -166 -87 -294t-231 -186q-127 -52 -269 -52q-260 0 -422 147q-166 151 -166 390q0 264 213 417q152 110 385 110zM682 880q-188 0 -294 -130q-82 -99 -82 -245q0 -173 110 -276q105 -99 273 -99q195 0 301 130
q81 98 81 246q0 172 -110 275q-104 99 -279 99zM986 1386l-246 -263h-156l131 263h271z" />
    <glyph glyph-name="ocircumflex" unicode="&#xf4;" horiz-adv-x="1377" vert-adv-y="1355" 
d="M699 1037q247 0 411 -148q166 -149 166 -384q0 -166 -87 -294t-231 -186q-127 -52 -269 -52q-260 0 -422 147q-166 151 -166 390q0 264 213 417q152 110 385 110zM682 880q-188 0 -294 -130q-82 -99 -82 -245q0 -173 110 -276q105 -99 273 -99q195 0 301 130
q81 98 81 246q0 172 -110 275q-104 99 -279 99zM589 1386h200l263 -263h-231l-142 137l-145 -137h-208z" />
    <glyph glyph-name="otilde" unicode="&#xf5;" horiz-adv-x="1377" vert-adv-y="1355" 
d="M699 1037q247 0 411 -148q166 -149 166 -384q0 -166 -87 -294t-231 -186q-127 -52 -269 -52q-260 0 -422 147q-166 151 -166 390q0 264 213 417q152 110 385 110zM682 880q-188 0 -294 -130q-82 -99 -82 -245q0 -173 110 -276q105 -99 273 -99q195 0 301 130
q81 98 81 246q0 172 -110 275q-104 99 -279 99zM957 1367h125q-9 -105 -62 -168q-54 -64 -132 -64q-84 0 -302 81q-53 20 -89 20q-49 0 -79 -84h-122q14 77 44 128q28 46 74 73q42 24 89 24q78 0 287 -74q60 -21 97 -21q55 0 70 85z" />
    <glyph glyph-name="odieresis" unicode="&#xf6;" horiz-adv-x="1377" vert-adv-y="1355" 
d="M699 1037q247 0 411 -148q166 -149 166 -384q0 -166 -87 -294t-231 -186q-127 -52 -269 -52q-260 0 -422 147q-166 151 -166 390q0 264 213 417q152 110 385 110zM682 880q-188 0 -294 -130q-82 -99 -82 -245q0 -173 110 -276q105 -99 273 -99q195 0 301 130
q81 98 81 246q0 172 -110 275q-104 99 -279 99zM354 1365h208v-218h-208v218zM814 1365h208v-218h-208v218z" />
    <glyph glyph-name="divide" unicode="&#xf7;" vert-adv-y="1355" 
d="M37 765h949v-108h-949v108zM513 1172q36 0 63 -26q28 -28 28 -67q0 -38 -28 -66q-27 -26 -64 -26q-38 0 -64 26q-29 28 -29 66q0 40 28 67q28 26 66 26zM513 433q38 0 66 -29q25 -26 25 -63q0 -39 -28 -67q-28 -26 -64 -26q-37 0 -64 26q-29 28 -29 66t26 64q28 29 68 29
z" />
    <glyph glyph-name="oslash" unicode="&#xf8;" horiz-adv-x="1377" vert-adv-y="1355" 
d="M326 74l-149 -134l-109 124l137 123q-104 135 -104 319q0 165 87 293q86 127 231 186q126 52 267 52q207 0 361 -97l154 138l109 -120l-142 -128q109 -146 109 -326q0 -165 -87 -293q-86 -127 -231 -186q-125 -52 -267 -52q-216 0 -366 101zM460 194q99 -64 232 -64
q192 0 299 130q81 99 81 242q0 110 -47 200zM350 316l563 504q-95 60 -228 60q-191 0 -297 -130q-82 -99 -82 -242q0 -107 44 -192z" />
    <glyph glyph-name="ugrave" unicode="&#xf9;" horiz-adv-x="1305" vert-adv-y="1355" 
d="M1154 1010v-1010h-198v144q-65 -64 -115 -96q-116 -75 -279 -75q-198 0 -314 104q-61 55 -80 130q-16 65 -16 160v643h198v-629q0 -99 27 -140q67 -101 224 -101q137 0 239 73q63 45 94 114q22 47 22 96v587h198zM357 1386h270l132 -263h-157z" />
    <glyph glyph-name="uacute" unicode="&#xfa;" horiz-adv-x="1305" vert-adv-y="1355" 
d="M1154 1010v-1010h-198v144q-65 -64 -115 -96q-116 -75 -279 -75q-198 0 -314 104q-61 55 -80 130q-16 65 -16 160v643h198v-629q0 -99 27 -140q67 -101 224 -101q137 0 239 73q63 45 94 114q22 47 22 96v587h198zM950 1386l-246 -263h-156l131 263h271z" />
    <glyph glyph-name="ucircumflex" unicode="&#xfb;" horiz-adv-x="1305" vert-adv-y="1355" 
d="M1154 1010v-1010h-198v144q-65 -64 -115 -96q-116 -75 -279 -75q-198 0 -314 104q-61 55 -80 130q-16 65 -16 160v643h198v-629q0 -99 27 -140q67 -101 224 -101q137 0 239 73q63 45 94 114q22 47 22 96v587h198zM553 1386h200l263 -263h-231l-142 137l-145 -137h-208z
" />
    <glyph glyph-name="udieresis" unicode="&#xfc;" horiz-adv-x="1305" vert-adv-y="1355" 
d="M1154 1010v-1010h-198v144q-65 -64 -115 -96q-116 -75 -279 -75q-198 0 -314 104q-61 55 -80 130q-16 65 -16 160v643h198v-629q0 -99 27 -140q67 -101 224 -101q137 0 239 73q63 45 94 114q22 47 22 96v587h198zM319 1365h208v-218h-208v218zM779 1365h208v-218h-208
v218z" />
    <glyph glyph-name="yacute" unicode="&#xfd;" horiz-adv-x="1181" vert-adv-y="1355" 
d="M937 1010h223l-494 -1089q-80 -177 -174 -226q-72 -38 -191 -38q-60 0 -141 17v166q88 -15 138 -15q105 0 156 71q24 33 42 89l-476 1025h234l347 -819zM887 1386l-246 -263h-156l131 263h271z" />
    <glyph glyph-name="thorn" unicode="&#xfe;" horiz-adv-x="1381" vert-adv-y="1355" 
d="M152 1365h198v-490q71 62 125 93q124 70 273 70q257 0 410 -183q123 -146 123 -350q0 -239 -163 -392q-148 -141 -370 -141q-167 0 -303 88q-40 27 -95 75v-490h-198v1720zM696 871q-118 0 -213 -63q-152 -100 -152 -303q0 -155 91 -252q105 -114 281 -114q123 0 221 63
q152 97 152 306q0 151 -91 249q-105 114 -289 114z" />
    <glyph glyph-name="ydieresis" unicode="&#xff;" horiz-adv-x="1181" vert-adv-y="1355" 
d="M937 1010h223l-494 -1089q-80 -177 -174 -226q-72 -38 -191 -38q-60 0 -141 17v166q88 -15 138 -15q105 0 156 71q24 33 42 89l-476 1025h234l347 -819zM256 1365h208v-218h-208v218zM716 1365h208v-218h-208v218z" />
    <glyph glyph-name="Cacute" unicode="&#x106;" horiz-adv-x="1619" vert-adv-y="1355" 
d="M1120 1761l-246 -263h-156l131 263h271zM1330 539h214q-42 -228 -166 -365q-188 -208 -534 -208q-398 0 -596 265q-136 183 -136 452q0 270 137 450q201 266 599 266q334 0 521 -189q122 -124 163 -333h-214q-25 119 -91 194q-135 151 -382 151q-246 0 -390 -161
q-132 -148 -132 -378q0 -231 135 -379q148 -161 390 -161q257 0 392 173q64 82 90 223z" />
    <glyph glyph-name="cacute" unicode="&#x107;" horiz-adv-x="1249" vert-adv-y="1355" 
d="M921 1386l-246 -263h-156l131 263h271zM975 366h196q-28 -126 -97 -212q-146 -181 -418 -181q-297 0 -440 175q-115 140 -115 352q0 264 163 406q149 131 391 131q188 0 318 -83q148 -95 188 -277h-192q-69 203 -307 203q-146 0 -242 -76q-121 -95 -121 -298
q0 -176 93 -272q100 -104 272 -104q242 0 311 236z" />
    <glyph glyph-name="Ccaron" unicode="&#x10c;" horiz-adv-x="1619" vert-adv-y="1355" 
d="M909 1498h-199l-263 263h231l142 -138l145 138h208zM1330 539h214q-42 -228 -166 -365q-188 -208 -534 -208q-398 0 -596 265q-136 183 -136 452q0 270 137 450q201 266 599 266q334 0 521 -189q122 -124 163 -333h-214q-25 119 -91 194q-135 151 -382 151
q-246 0 -390 -161q-132 -148 -132 -378q0 -231 135 -379q148 -161 390 -161q257 0 392 173q64 82 90 223z" />
    <glyph glyph-name="ccaron" unicode="&#x10d;" horiz-adv-x="1249" vert-adv-y="1355" 
d="M723 1123h-199l-263 263h231l142 -138l145 138h208zM975 366h196q-28 -126 -97 -212q-146 -181 -418 -181q-297 0 -440 175q-115 140 -115 352q0 264 163 406q149 131 391 131q188 0 318 -83q148 -95 188 -277h-192q-69 203 -307 203q-146 0 -242 -76q-121 -95 -121 -298
q0 -176 93 -272q100 -104 272 -104q242 0 311 236z" />
    <glyph glyph-name="dmacron" unicode="&#x111;" horiz-adv-x="1381" vert-adv-y="1355" 
d="M1230 1270h71v-137h-71v-1133h-198v135q-69 -61 -125 -93q-123 -70 -273 -70q-257 0 -410 183q-123 146 -123 350q0 239 163 392q148 141 370 141q167 0 303 -89q40 -26 95 -74v258h-340v137h340v95h198v-95zM672 870q-119 0 -214 -63q-152 -100 -152 -302
q0 -154 91 -252q105 -114 282 -114q122 0 220 63q152 97 152 303q0 154 -91 252q-105 113 -288 113z" />
    <glyph glyph-name="Gbreve" unicode="&#x11e;" horiz-adv-x="1698" vert-adv-y="1355" 
d="M1068 1751h165q-27 -92 -95 -154q-110 -99 -289 -99q-192 0 -304 114q-55 56 -80 139h165q69 -123 219 -123t219 123zM1557 0h-160l-28 186q-90 -91 -173 -137q-153 -84 -361 -84q-353 0 -556 234q-167 192 -167 478q0 313 197 512q102 102 237 153q153 57 322 57
q326 0 518 -186q110 -107 156 -280h-223q-27 77 -60 119q-68 87 -185 133q-96 37 -212 37q-234 0 -382 -137q-157 -146 -157 -394q0 -259 158 -409q146 -139 385 -139q267 0 408 178q70 89 95 234h-449v191h637v-746z" />
    <glyph glyph-name="gbreve" unicode="&#x11f;" horiz-adv-x="1374" vert-adv-y="1355" 
d="M906 1382h165q-27 -93 -95 -153q-111 -100 -289 -100q-192 0 -304 114q-55 56 -80 139h165q70 -123 219 -123t219 123zM1035 1010h188v-847q0 -186 -36 -270q-108 -248 -520 -248q-488 0 -516 313h220q11 -67 57 -100q80 -56 243 -56q202 0 290 88q74 74 74 223v54
q-71 -63 -127 -95q-123 -70 -278 -70q-160 0 -293 75q-120 67 -180 188q-56 113 -56 251q0 251 169 394q151 127 373 127q225 0 392 -155v128zM664 870q-181 0 -282 -117q-83 -95 -83 -233q0 -164 110 -262q99 -89 262 -89q189 0 290 117q82 95 82 236q0 161 -110 259
q-98 89 -269 89z" />
    <glyph glyph-name="Idot" unicode="&#x130;" horiz-adv-x="547" vert-adv-y="1355" 
d="M380 1526h-212v208h212v-208zM380 0h-212v1365h212v-1365z" />
    <glyph glyph-name="dotlessi" unicode="&#x131;" horiz-adv-x="501" vert-adv-y="1355" 
d="M152 0v1012h198v-1012h-198z" />
    <glyph glyph-name="Lslash" unicode="&#x141;" horiz-adv-x="1282" vert-adv-y="1355" 
d="M168 395l-119 -90v199l119 89v772h212v-633l426 322v-199l-426 -321v-343h854v-191h-1066v395z" />
    <glyph glyph-name="lslash" unicode="&#x142;" horiz-adv-x="528" vert-adv-y="1355" 
d="M363 875l80 60v-153l-80 -61v-721h-198v586l-80 -61v154l80 61v625h198v-490z" />
    <glyph glyph-name="OE" unicode="&#x152;" horiz-adv-x="2469" vert-adv-y="1355" 
d="M1229 1198v167h1119v-191h-907v-382h853v-191h-853v-410h924v-191h-1136v161q-55 -70 -115 -110q-128 -85 -330 -85q-302 0 -484 187q-188 192 -188 518q0 316 180 518q188 210 488 210q291 0 449 -201zM1229 985q-139 237 -410 237q-162 0 -290 -91q-112 -79 -164 -219
q-41 -112 -41 -243q0 -221 115 -363q133 -163 376 -163q283 0 414 242v600z" />
    <glyph glyph-name="oe" unicode="&#x153;" horiz-adv-x="2233" vert-adv-y="1355" 
d="M1135 181q-46 -63 -115 -109q-149 -99 -352 -99q-249 0 -407 148q-160 151 -160 384q0 270 205 422q149 110 362 110q238 0 395 -131q43 -36 75 -81q43 59 97 101q145 112 353 112q246 0 394 -148q150 -150 150 -444h-905q10 -100 59 -169q104 -147 316 -147
q229 0 305 185h207q-145 -342 -529 -342q-304 0 -450 208zM1040 492v11v11q-2 90 -35 165q-44 99 -135 151q-88 50 -197 50q-187 0 -290 -130q-77 -99 -77 -245q0 -172 105 -275q101 -100 262 -100t262 100q99 96 105 262zM1936 601q-24 96 -73 155q-103 125 -279 125
t-279 -125q-48 -58 -73 -155h704z" />
    <glyph glyph-name="Scedilla" unicode="&#x15e;" horiz-adv-x="1231" vert-adv-y="1355" 
d="M640 -29l-57 -84q61 10 85 10q72 0 118 -35q53 -39 53 -107q0 -84 -80 -135q-57 -37 -149 -37q-115 0 -235 51l31 67q100 -43 182 -43q55 0 87 26q34 26 34 65q0 42 -40 65q-25 14 -62 14q-38 0 -97 -20l-41 36l87 129q-236 14 -365 132q-97 89 -128 232q-12 58 -11 119
h216q4 -83 18 -124q35 -102 130 -151q87 -44 207 -44q182 0 266 89q59 62 59 150q0 114 -111 163q-45 20 -386 114q-207 56 -281 143q-73 85 -73 215q0 193 163 298q132 86 337 86q169 0 299 -60q214 -99 226 -367h-205q-14 261 -327 261q-122 0 -200 -50q-84 -54 -84 -156
q0 -99 74 -142q55 -32 263 -85q265 -68 346 -111q174 -92 174 -295q0 -171 -115 -281q-137 -130 -408 -138z" />
    <glyph glyph-name="scedilla" unicode="&#x15f;" horiz-adv-x="973" vert-adv-y="1355" 
d="M512 -27l-56 -82q49 10 84 10q50 0 88 -20q72 -38 72 -114q0 -83 -75 -129q-60 -36 -145 -36q-109 0 -220 48l28 63q97 -40 177 -40q58 0 91 33q23 23 23 54q0 38 -32 62q-25 17 -64 17q-40 0 -93 -21l-40 34l84 123q-144 8 -248 77q-136 93 -140 282h189
q9 -231 253 -231q109 0 169 46q63 48 63 122q0 54 -34 86q-35 32 -88 48q-58 17 -139 35q-197 43 -270 85q-114 64 -114 202q0 147 126 223q99 60 277 60q235 0 340 -117q61 -68 69 -196h-181q-7 72 -34 111q-53 79 -198 79q-113 0 -166 -52q-38 -37 -38 -94q0 -47 26 -75
q31 -33 81 -48q64 -19 168 -41q170 -36 250 -79q119 -66 119 -215q0 -188 -195 -270q-83 -35 -207 -40z" />
    <glyph glyph-name="Scaron" unicode="&#x160;" horiz-adv-x="1457" vert-adv-y="1355" 
d="M1308 969h-212q-10 112 -85 171q-105 81 -293 81q-171 0 -276 -65q-90 -56 -90 -149q0 -87 85 -133q59 -32 217 -60l280 -50q201 -36 295 -102q65 -47 99 -126q27 -63 27 -135q0 -154 -107 -267q-158 -168 -501 -168q-396 0 -546 182q-69 84 -89 198q-7 38 -10 115h220
q1 -83 22 -130q45 -107 182 -154q95 -33 229 -33q191 0 295 74q87 62 87 162q0 89 -81 133q-62 34 -169 52l-259 44q-204 35 -309 84q-89 42 -139 136q-40 74 -40 162q0 151 104 256q151 152 476 152q283 0 431 -109q101 -74 136 -191q13 -45 21 -130zM827 1498h-199
l-263 263h231l142 -138l145 138h208z" />
    <glyph glyph-name="scaron" unicode="&#x161;" horiz-adv-x="1196" vert-adv-y="1355" 
d="M1079 695h-199q-9 74 -44 111q-72 75 -242 75q-104 0 -179 -30q-89 -36 -89 -106q0 -37 35 -68q31 -28 115 -45q39 -8 172 -28q207 -32 255 -45q127 -35 175 -114q39 -63 39 -145q0 -173 -149 -255q-132 -72 -357 -72q-307 0 -436 140q-70 77 -92 214h206q9 -75 56 -117
q91 -80 267 -80q139 0 221 37q79 35 79 110q0 66 -61 92q-39 17 -88 25l-162 26q-232 37 -313 69q-82 33 -128 110q-32 56 -32 126q0 108 74 186q119 127 401 127q283 0 401 -140q62 -74 75 -203zM697 1123h-199l-263 263h231l142 -138l145 138h208z" />
    <glyph glyph-name="Ydieresis" unicode="&#x178;" horiz-adv-x="1416" vert-adv-y="1355" 
d="M814 0h-212v568l-602 797h273l440 -618l446 618h258l-603 -797v-568zM537 1526h-212v208h212v-208zM1091 1526h-212v208h212v-208z" />
    <glyph glyph-name="Zcaron" unicode="&#x17d;" horiz-adv-x="1390" vert-adv-y="1355" 
d="M1327 0h-1252v188l981 986h-917v191h1188v-198l-962 -976h962v-191zM794 1498h-199l-263 263h231l142 -138l145 138h208z" />
    <glyph glyph-name="zcaron" unicode="&#x17e;" horiz-adv-x="1154" vert-adv-y="1355" 
d="M129 1010h955v-164l-723 -669h732v-177h-1004v177l720 669h-680v164zM676 1123h-199l-263 263h231l142 -138l145 138h208z" />
    <glyph glyph-name="florin" unicode="&#x192;" horiz-adv-x="1297" vert-adv-y="1355" 
d="M970 971l-24 -125h-236l-231 -1187h-198l231 1187h-156l24 125h156l51 262q27 141 95 194q77 61 248 61q65 0 139 -10l-34 -173q-60 6 -112 6q-76 0 -105 -20q-25 -17 -36 -72l-48 -248h236z" />
    <glyph glyph-name="circumflex" unicode="&#x2c6;" vert-adv-y="1355" 
d="M412 1386h200l263 -263h-231l-142 137l-145 -137h-208z" />
    <glyph glyph-name="caron" unicode="&#x2c7;" vert-adv-y="1355" 
d="M611 1123h-199l-263 263h231l142 -138l145 138h208z" />
    <glyph glyph-name="macron" unicode="&#x2c9;" vert-adv-y="1355" 
d="M880 1321v-130h-737v130h737z" />
    <glyph glyph-name="breve" unicode="&#x2d8;" vert-adv-y="1355" 
d="M731 1382h165q-27 -93 -95 -153q-111 -100 -289 -100q-192 0 -304 114q-55 56 -80 139h165q70 -123 219 -123t219 123z" />
    <glyph glyph-name="dotaccent" unicode="&#x2d9;" vert-adv-y="1355" 
d="M408 1365h208v-218h-208v218z" />
    <glyph glyph-name="ring" unicode="&#x2da;" vert-adv-y="1355" 
d="M516 1518q79 0 140 -46q69 -51 69 -136q0 -61 -39 -105q-65 -73 -173 -73q-111 0 -174 73q-39 46 -39 107q0 94 85 146q56 34 131 34zM510 1443q-56 0 -92 -30q-33 -28 -33 -75q0 -53 43 -82q34 -23 85 -23q58 0 94 30q33 29 33 76q0 52 -43 81q-34 23 -87 23z" />
    <glyph glyph-name="ogonek" unicode="&#x2db;" vert-adv-y="1355" 
d="M669 0h102q-113 -85 -113 -169q0 -59 57 -86q34 -16 77 -16q33 0 83 15v-83q-65 -21 -116 -21q-99 0 -155 52q-51 46 -51 116q0 98 116 192z" />
    <glyph glyph-name="tilde" unicode="&#x2dc;" vert-adv-y="1355" 
d="M780 1367h125q-9 -105 -62 -168q-54 -64 -132 -64q-84 0 -302 81q-53 20 -89 20q-49 0 -79 -84h-122q14 77 44 128q28 46 74 73q42 24 89 24q78 0 287 -74q60 -21 97 -21q55 0 70 85z" />
    <glyph glyph-name="hungarumlaut" unicode="&#x2dd;" vert-adv-y="1355" 
d="M553 1386l-246 -263h-156l131 263h271zM1063 1386l-245 -263h-156l131 263h270z" />
    <glyph glyph-name="pi" unicode="&#x3c0;" horiz-adv-x="1184" vert-adv-y="1355" 
d="M189 0v827h-149v154h1104v-154h-148v-827h-192v827h-423v-827h-192z" />
    <glyph glyph-name="endash" unicode="&#x2013;" horiz-adv-x="1297" vert-adv-y="1355" 
d="M1200 607v-177h-1103v177h1103z" />
    <glyph glyph-name="emdash" unicode="&#x2014;" horiz-adv-x="1728" vert-adv-y="1355" 
d="M1728 607v-177h-1728v177h1728z" />
    <glyph glyph-name="quoteleft" unicode="&#x2018;" horiz-adv-x="518" vert-adv-y="1355" 
d="M380 846h-242v180q1 151 77 246q58 70 154 93v-115q-111 -37 -112 -179h123v-225z" />
    <glyph glyph-name="quoteright" unicode="&#x2019;" horiz-adv-x="518" vert-adv-y="1355" 
d="M138 1365h242v-180q-1 -151 -77 -247q-58 -69 -154 -92v115q111 37 112 179h-123v225z" />
    <glyph glyph-name="quotesinglbase" unicode="&#x201a;" horiz-adv-x="518" vert-adv-y="1355" 
d="M138 225h242v-180q-1 -151 -77 -247q-58 -69 -154 -92v115q111 37 112 179h-123v225z" />
    <glyph glyph-name="quotedblleft" unicode="&#x201c;" horiz-adv-x="885" vert-adv-y="1355" 
d="M747 846h-242v180q1 151 78 246q58 70 154 93v-115q-111 -37 -112 -179h122v-225zM380 846h-242v180q1 151 77 246q58 70 154 93v-115q-111 -37 -112 -179h123v-225z" />
    <glyph glyph-name="quotedblright" unicode="&#x201d;" horiz-adv-x="885" vert-adv-y="1355" 
d="M138 1365h242v-180q-1 -151 -77 -247q-58 -69 -154 -92v115q111 37 112 179h-123v225zM505 1365h242v-180q-1 -151 -77 -247q-59 -69 -154 -92v115q111 37 112 179h-123v225z" />
    <glyph glyph-name="quotedblbase" unicode="&#x201e;" horiz-adv-x="885" vert-adv-y="1355" 
d="M138 225h242v-180q-1 -151 -77 -247q-58 -69 -154 -92v115q111 37 112 179h-123v225zM505 225h242v-180q-1 -151 -77 -247q-59 -69 -154 -92v115q111 37 112 179h-123v225z" />
    <glyph glyph-name="dagger" unicode="&#x2020;" horiz-adv-x="1270" vert-adv-y="1355" 
d="M536 1365h198v-450h454v-177h-454v-1079h-198v1079h-454v177h454v450z" />
    <glyph glyph-name="daggerdbl" unicode="&#x2021;" horiz-adv-x="1297" vert-adv-y="1355" 
d="M550 1365h198v-450h454v-177h-454v-452h454v-177h-454v-450h-198v450h-454v177h454v452h-454v177h454v450z" />
    <glyph glyph-name="bullet" unicode="&#x2022;" horiz-adv-x="1365" vert-adv-y="1355" 
d="M689 978q113 0 196 -83q84 -83 84 -201t-83 -201t-201 -83q-116 0 -199 82q-85 84 -85 202q0 120 84 202q86 82 204 82z" />
    <glyph glyph-name="ellipsis" unicode="&#x2026;" horiz-adv-x="1554" vert-adv-y="1355" 
d="M138 225h242v-225h-242v225zM656 225h242v-225h-242v225zM1175 225h242v-225h-242v225z" />
    <glyph glyph-name="perthousand" unicode="&#x2030;" horiz-adv-x="2707" vert-adv-y="1355" 
d="M426 1338q122 0 212 -73q135 -110 135 -371q0 -177 -70 -295q-43 -72 -121 -112q-73 -36 -161 -36q-129 0 -218 73q-78 63 -112 189q-23 85 -23 180q0 180 70 297q88 148 288 148zM417 1198q-97 0 -148 -84q-44 -74 -44 -220q0 -303 196 -303q195 0 195 301
q0 150 -44 222q-51 84 -155 84zM1145 1324h160l-569 -1324h-160zM1472 873q122 0 212 -73q135 -110 135 -371q0 -177 -70 -295q-43 -72 -121 -111q-73 -37 -161 -37q-129 0 -218 73q-78 63 -112 189q-23 85 -23 180q0 180 70 297q88 148 288 148zM1463 733q-97 0 -148 -84
q-44 -74 -44 -220q0 -303 196 -303q195 0 195 301q0 150 -44 222q-51 84 -155 84zM2292 873q122 0 212 -73q78 -64 112 -189q23 -86 23 -182q0 -177 -70 -295q-43 -72 -121 -111q-73 -37 -162 -37q-128 0 -218 73q-78 63 -112 189q-23 85 -23 180q0 180 70 297
q89 148 289 148zM2283 733q-98 0 -149 -84q-44 -74 -44 -220q0 -303 196 -303t196 301q0 150 -44 222q-52 84 -155 84z" />
    <glyph glyph-name="guilsinglleft" unicode="&#x2039;" horiz-adv-x="543" vert-adv-y="1355" 
d="M82 423v192l356 261v-198l-213 -159l213 -159v-198z" />
    <glyph glyph-name="guilsinglright" unicode="&#x203a;" horiz-adv-x="543" vert-adv-y="1355" 
d="M461 614v-191l-356 -261v198l213 159l-213 159v198z" />
    <glyph glyph-name="franc" unicode="&#x20a3;" horiz-adv-x="2120" vert-adv-y="1355" 
d="M380 0h-212v1365h1060v-191h-848v-384h745v-191h-745v-599zM1420 1010h198v-150q55 65 95 98q93 80 238 80q52 0 124 -11v-199q-75 19 -133 19q-156 0 -253 -102q-43 -45 -59 -91q-12 -37 -12 -101v-553h-198v1010z" />
    <glyph glyph-name="a" unicode="&#x20ac;" horiz-adv-x="1446" vert-adv-y="1355" 
d="M14 742l49 120h169q45 161 149 284t247 188q140 64 298 64q284 0 506 -213l-51 -122q-185 215 -457 215q-257 0 -436 -191q-91 -97 -131 -225h780h159l-49 -120h-915q-2 -37 -2 -58t2 -60h866l-50 -120h-791q28 -94 95 -183q77 -101 189 -161q132 -72 282 -72
q275 0 458 215v-170q-213 -166 -455 -166q-223 0 -406 126q-215 148 -288 411h-216l49 120h146q-2 40 -2 61q0 24 2 57h-197z" />
    <glyph glyph-name="trademark" unicode="&#x2122;" horiz-adv-x="2131" vert-adv-y="1355" 
d="M490 546h-148v693h-324v126h798v-126h-326v-693zM2017 546h-148v635l-327 -635h-128l-318 635v-635h-148v819h202l333 -670l338 670h196v-819z" />
    <glyph glyph-name="Ohm" unicode="&#x2126;" horiz-adv-x="1364" vert-adv-y="1355" 
d="M57 0v178h343q-347 206 -347 570q0 304 226 500q173 151 403 151q231 0 404 -151q226 -196 226 -500q0 -363 -347 -570h343v-178h-539v165q125 68 200 162q136 171 136 385q0 238 -153 391q-116 116 -268 116q-154 0 -271 -117q-153 -152 -153 -388q0 -365 336 -549v-165
h-539z" />
    <glyph glyph-name="partialdiff" unicode="&#x2202;" vert-adv-y="1355" 
d="M157 1207l24 162q178 -24 302 -74q175 -70 299 -224q185 -228 185 -568q0 -198 -83 -325q-66 -100 -171 -152q-93 -47 -201 -47q-151 0 -270 88q-71 51 -117 126q-68 112 -68 247q0 134 69 249q61 103 164 155q88 45 185 45q122 0 200 -53q24 -16 87 -81q-16 30 -69 145
q-1 19 -76 102q-53 58 -139 104q-112 58 -188 77q-56 14 -133 24zM518 736q-62 0 -132 -36q-60 -31 -97 -90q-50 -80 -50 -173q0 -130 89 -217q79 -79 183 -79q95 0 171 65q99 86 99 237q0 147 -91 227q-75 66 -172 66z" />
    <glyph glyph-name="increment" unicode="&#x2206;" horiz-adv-x="1293" vert-adv-y="1355" 
d="M14 0l526 1365h211l528 -1365h-1265zM277 178h735l-366 969z" />
    <glyph glyph-name="product" unicode="&#x220f;" horiz-adv-x="1365" vert-adv-y="1355" 
d="M49 1536h1267v-165h-150v-1718h150v-165h-482v165h148v1718h-599v-1718h145v-165h-479v165h151v1718h-151v165z" />
    <glyph glyph-name="summation" unicode="&#x2211;" horiz-adv-x="1365" vert-adv-y="1355" 
d="M1241 1536v-488h-186l-20 299h-737l506 -798l-504 -873h754l11 303h194v-491h-1189v217l492 843l-492 773v215h1171z" />
    <glyph glyph-name="minus" unicode="&#x2212;" vert-adv-y="1355" 
d="M37 765h949v-108h-949v108z" />
    <glyph glyph-name="fraction" unicode="&#x2215;" horiz-adv-x="239" vert-adv-y="1355" 
d="M458 1365l-582 -1365h-94l582 1365h94z" />
    <glyph glyph-name="periodcentered" unicode="&#x2219;" horiz-adv-x="518" vert-adv-y="1355" 
d="M138 631h242v-225h-242v225z" />
    <glyph glyph-name="radical" unicode="&#x221a;" horiz-adv-x="1365" vert-adv-y="1355" 
d="M1365 1693v-170h-377l-432 -1523h-230l-156 575h-170v170h288l77 -263q9 -33 53 -250l6 -32h11q10 49 91 391l89 312l223 790h527z" />
    <glyph glyph-name="infinity" unicode="&#x221e;" horiz-adv-x="1365" vert-adv-y="1355" 
d="M686 598q-152 -216 -338 -216q-156 0 -244 110q-66 85 -66 207q0 175 138 262q78 49 173 49q186 0 331 -216q146 216 340 216q159 0 246 -116q62 -83 62 -200q0 -148 -98 -235q-86 -77 -209 -77q-191 0 -335 216zM756 696q10 -15 17 -25q108 -158 231 -158q80 0 130 58
q44 51 44 125q0 95 -67 146q-48 37 -109 37q-103 0 -190 -106q-20 -23 -40 -52zM610 695l-12 18q-110 166 -236 166q-80 0 -130 -58q-44 -51 -44 -125q0 -94 67 -145q49 -38 110 -38q101 0 189 106q20 23 39 52z" />
    <glyph glyph-name="integral" unicode="&#x222b;" vert-adv-y="1355" 
d="M163 -490l39 192q45 -22 82 -22q85 0 109 71q9 26 10 197v1092q1 162 1 184q3 133 63 207q85 105 247 105q61 0 147 -22l-39 -192q-46 21 -84 21q-83 0 -107 -70q-10 -30 -10 -135v-1149q0 -200 -7 -246q-23 -152 -137 -209q-82 -42 -204 -42q-64 0 -110 18z" />
    <glyph glyph-name="approxequal" unicode="&#x2248;" vert-adv-y="1355" 
d="M130 712l-110 76q108 249 288 249q75 0 235 -76q95 -46 123 -54q31 -9 56 -9q67 0 112 49q23 25 60 82l110 -76q-55 -130 -131 -189q-74 -57 -176 -57q-31 0 -76 14q-39 13 -161 71q-106 51 -165 51q-53 0 -97 -42q-30 -30 -68 -89zM130 328l-110 76q109 249 288 249
q74 0 235 -76q95 -45 123 -53q30 -9 56 -9q66 0 112 48q24 26 60 82l110 -76q-55 -130 -131 -189q-74 -57 -176 -57q-31 0 -76 14q-41 13 -161 71q-105 51 -165 51q-53 0 -97 -42q-30 -29 -68 -89z" />
    <glyph glyph-name="notequal" unicode="&#x2260;" vert-adv-y="1355" 
d="M545 929l130 257l140 -67l-96 -190h237v-179h-311l-94 -187h404v-179h-471l-124 -245l-140 67l90 178h-242v179h310l93 187h-402v179h476z" />
    <glyph glyph-name="lessequal" unicode="&#x2264;" vert-adv-y="1355" 
d="M955 1255v-202l-652 -241l652 -240v-203l-887 352v183zM955 312v-189h-887v189h887z" />
    <glyph glyph-name="greaterequal" unicode="&#x2265;" vert-adv-y="1355" 
d="M69 369v203l651 240l-652 241v202l887 -351v-183zM68 123v189h887v-189h-887z" />
    <glyph glyph-name="lozenge" unicode="&#x25ca;" horiz-adv-x="1365" vert-adv-y="1355" 
d="M683 1419l531 -736l-531 -736l-532 736zM683 1238l-404 -555l404 -554l403 554z" />
    <glyph glyph-name="fi" unicode="&#xf001;" horiz-adv-x="1152" vert-adv-y="1355" 
d="M632 1010v-164h-236v-846h-198v846h-156v164h156v121q0 140 57 194q65 61 236 61q66 0 141 -10v-173q-62 6 -113 6q-76 0 -101 -20q-22 -17 -22 -73v-106h236zM803 0v1012h198v-1012h-198zM803 1153v212h198v-212h-198z" />
    <glyph glyph-name="fl" unicode="&#xf002;" horiz-adv-x="1152" vert-adv-y="1355" 
d="M632 1010v-164h-236v-846h-198v846h-156v164h156v121q0 140 57 194q65 61 236 61q66 0 141 -10v-173q-62 6 -113 6q-76 0 -101 -20q-22 -17 -22 -73v-106h236zM1001 1365v-1365h-198v1365h198z" />
    <glyph glyph-name="glyph172" horiz-adv-x="1297" vert-adv-y="1297" 
 />
    <glyph glyph-name="glyph210" horiz-adv-x="614" vert-adv-y="1355" 
 />
    <glyph glyph-name="glyph262" vert-adv-y="1355" 
d="M618 1526h-212v208h212v-208z" />
    <glyph glyph-name="glyph263" vert-adv-y="1355" 
d="M357 1526h-190v208h190v-208zM857 1526h-190v208h190v-208z" />
    <glyph glyph-name="glyph264" vert-adv-y="1355" 
d="M731 1751h165q-27 -92 -95 -154q-110 -99 -289 -99q-192 0 -304 114q-55 56 -80 139h165q69 -123 219 -123t219 123z" />
    <glyph glyph-name="glyph265" vert-adv-y="1355" 
d="M611 1498h-199l-263 263h231l142 -138l145 138h208z" />
    <glyph glyph-name="glyph266" vert-adv-y="1355" 
d="M211 1365h187v-218h-187v218zM626 1365h187v-218h-187v218z" />
    <glyph glyph-name="glyph267" vert-adv-y="1355" 
d="M412 1761h200l263 -263h-231l-142 138l-145 -138h-208z" />
    <glyph glyph-name="glyph268" vert-adv-y="1355" 
d="M202 1761h270l132 -263h-157z" />
    <glyph glyph-name="glyph269" vert-adv-y="1355" 
d="M823 1761l-246 -263h-156l131 263h271z" />
    <glyph glyph-name="glyph270" vert-adv-y="1355" 
d="M341 1526h-212v208h212v-208zM895 1526h-212v208h212v-208z" />
    <glyph glyph-name="glyph271" vert-adv-y="1355" 
d="M516 1859q79 0 140 -46q69 -51 69 -136q0 -59 -39 -104q-64 -73 -173 -73q-111 0 -174 73q-39 45 -39 106q0 94 85 146q56 34 131 34zM510 1784q-56 0 -92 -30q-33 -28 -33 -74q0 -53 43 -82q34 -23 85 -23q58 0 94 30q33 28 33 75q0 53 -43 81q-33 23 -87 23z" />
    <glyph glyph-name="glyph272" vert-adv-y="1355" 
d="M780 1735h125q-10 -104 -62 -167q-54 -64 -132 -64q-84 0 -302 81q-53 20 -89 20q-49 0 -79 -84h-122q14 77 44 127q58 97 163 97q79 0 287 -73q60 -21 97 -21q54 0 70 84z" />
    <glyph glyph-name="glyph274" horiz-adv-x="614" vert-adv-y="1355" 
 />
    </font>
</defs>
</svg>
